<svg width="980" height="2064" xmlns="http://www.w3.org/2000/svg">
<rect x="20" y="20" width="120" height="22" fill="#f0f0f0" stroke="black"/>
<text x="25" y="35" font-weight="bold">TYPE</text>
<rect x="140" y="20" width="160" height="22" fill="#f0f0f0" stroke="black"/>
<text x="145" y="35" font-weight="bold">POINT</text>
<rect x="300" y="20" width="460" height="22" fill="#f0f0f0" stroke="black"/>
<text x="305" y="35" font-weight="bold">DESCRIPTION</text>
<rect x="760" y="20" width="180" height="22" fill="#f0f0f0" stroke="black"/>
<text x="765" y="35" font-weight="bold">TYPE</text>
<rect x="20" y="42" width="120" height="22" fill="white" stroke="black"/>
<text x="25" y="57" font-size="11"></text>
<rect x="140" y="42" width="160" height="22" fill="white" stroke="black"/>
<text x="145" y="57" font-size="11"></text>
<rect x="300" y="42" width="460" height="22" fill="white" stroke="black"/>
<text x="305" y="57" font-size="11">Geelong Convention & Event Center</text>
<rect x="760" y="42" width="180" height="22" fill="white" stroke="black"/>
<text x="765" y="57" font-size="11"></text>
<rect x="20" y="64" width="120" height="22" fill="white" stroke="black"/>
<text x="25" y="79" font-size="11"></text>
<rect x="140" y="64" width="160" height="22" fill="white" stroke="black"/>
<text x="145" y="79" font-size="11"></text>
<rect x="300" y="64" width="460" height="22" fill="white" stroke="black"/>
<text x="305" y="79" font-size="11"></text>
<rect x="760" y="64" width="180" height="22" fill="white" stroke="black"/>
<text x="765" y="79" font-size="11"></text>
<rect x="20" y="86" width="120" height="22" fill="white" stroke="black"/>
<text x="25" y="101" font-size="11"></text>
<rect x="140" y="86" width="160" height="22" fill="white" stroke="black"/>
<text x="145" y="101" font-size="11"></text>
<rect x="300" y="86" width="460" height="22" fill="white" stroke="black"/>
<text x="305" y="101" font-size="11"></text>
<rect x="760" y="86" width="180" height="22" fill="white" stroke="black"/>
<text x="765" y="101" font-size="11"></text>
<rect x="20" y="108" width="120" height="22" fill="white" stroke="black"/>
<text x="25" y="123" font-size="11"></text>
<rect x="140" y="108" width="160" height="22" fill="white" stroke="black"/>
<text x="145" y="123" font-size="11"></text>
<rect x="300" y="108" width="460" height="22" fill="white" stroke="black"/>
<text x="305" y="123" font-size="11"></text>
<rect x="760" y="108" width="180" height="22" fill="white" stroke="black"/>
<text x="765" y="123" font-size="11"></text>
<rect x="20" y="130" width="120" height="22" fill="white" stroke="black"/>
<text x="25" y="145" font-size="11"></text>
<rect x="140" y="130" width="160" height="22" fill="white" stroke="black"/>
<text x="145" y="145" font-size="11"></text>
<rect x="300" y="130" width="460" height="22" fill="white" stroke="black"/>
<text x="305" y="145" font-size="11"></text>
<rect x="760" y="130" width="180" height="22" fill="white" stroke="black"/>
<text x="765" y="145" font-size="11"></text>
<rect x="20" y="152" width="120" height="22" fill="white" stroke="black"/>
<text x="25" y="167" font-size="11"></text>
<rect x="140" y="152" width="160" height="22" fill="white" stroke="black"/>
<text x="145" y="167" font-size="11"></text>
<rect x="300" y="152" width="460" height="22" fill="white" stroke="black"/>
<text x="305" y="167" font-size="11"></text>
<rect x="760" y="152" width="180" height="22" fill="white" stroke="black"/>
<text x="765" y="167" font-size="11">Project Site</text>
<rect x="20" y="174" width="120" height="22" fill="white" stroke="black"/>
<text x="25" y="189" font-size="11"></text>
<rect x="140" y="174" width="160" height="22" fill="white" stroke="black"/>
<text x="145" y="189" font-size="11"></text>
<rect x="300" y="174" width="460" height="22" fill="white" stroke="black"/>
<text x="305" y="189" font-size="11"></text>
<rect x="760" y="174" width="180" height="22" fill="white" stroke="black"/>
<text x="765" y="189" font-size="11"></text>
<rect x="20" y="196" width="120" height="22" fill="white" stroke="black"/>
<text x="25" y="211" font-size="11"></text>
<rect x="140" y="196" width="160" height="22" fill="white" stroke="black"/>
<text x="145" y="211" font-size="11"></text>
<rect x="300" y="196" width="460" height="22" fill="white" stroke="black"/>
<text x="305" y="211" font-size="11"></text>
<rect x="760" y="196" width="180" height="22" fill="white" stroke="black"/>
<text x="765" y="211" font-size="11">Mechanical Contractor</text>
<rect x="20" y="218" width="120" height="22" fill="white" stroke="black"/>
<text x="25" y="233" font-size="11"></text>
<rect x="140" y="218" width="160" height="22" fill="white" stroke="black"/>
<text x="145" y="233" font-size="11"></text>
<rect x="300" y="218" width="460" height="22" fill="white" stroke="black"/>
<text x="305" y="233" font-size="11"></text>
<rect x="760" y="218" width="180" height="22" fill="white" stroke="black"/>
<text x="765" y="233" font-size="11">
Prinson Jacob</text>
<rect x="20" y="240" width="120" height="22" fill="white" stroke="black"/>
<text x="25" y="255" font-size="11"></text>
<rect x="140" y="240" width="160" height="22" fill="white" stroke="black"/>
<text x="145" y="255" font-size="11"></text>
<rect x="300" y="240" width="460" height="22" fill="white" stroke="black"/>
<text x="305" y="255" font-size="11"></text>
<rect x="760" y="240" width="180" height="22" fill="white" stroke="black"/>
<text x="765" y="255" font-size="11">Aftab Ahmad</text>
<rect x="20" y="262" width="120" height="22" fill="white" stroke="black"/>
<text x="25" y="277" font-size="11"></text>
<rect x="140" y="262" width="160" height="22" fill="white" stroke="black"/>
<text x="145" y="277" font-size="11"></text>
<rect x="300" y="262" width="460" height="22" fill="white" stroke="black"/>
<text x="305" y="277" font-size="11"></text>
<rect x="760" y="262" width="180" height="22" fill="white" stroke="black"/>
<text x="765" y="277" font-size="11"></text>
<rect x="20" y="284" width="120" height="22" fill="white" stroke="black"/>
<text x="25" y="299" font-size="11"></text>
<rect x="140" y="284" width="160" height="22" fill="white" stroke="black"/>
<text x="145" y="299" font-size="11"></text>
<rect x="300" y="284" width="460" height="22" fill="white" stroke="black"/>
<text x="305" y="299" font-size="11"></text>
<rect x="760" y="284" width="180" height="22" fill="white" stroke="black"/>
<text x="765" y="299" font-size="11"></text>
<rect x="20" y="306" width="120" height="22" fill="white" stroke="black"/>
<text x="25" y="321" font-size="11"></text>
<rect x="140" y="306" width="160" height="22" fill="white" stroke="black"/>
<text x="145" y="321" font-size="11"></text>
<rect x="300" y="306" width="460" height="22" fill="white" stroke="black"/>
<text x="305" y="321" font-size="11">1</text>
<rect x="760" y="306" width="180" height="22" fill="white" stroke="black"/>
<text x="765" y="321" font-size="11"></text>
<rect x="20" y="328" width="120" height="22" fill="white" stroke="black"/>
<text x="25" y="343" font-size="11"></text>
<rect x="140" y="328" width="160" height="22" fill="white" stroke="black"/>
<text x="145" y="343" font-size="11"></text>
<rect x="300" y="328" width="460" height="22" fill="white" stroke="black"/>
<text x="305" y="343" font-size="11">refer to system schedule</text>
<rect x="760" y="328" width="180" height="22" fill="white" stroke="black"/>
<text x="765" y="343" font-size="11"></text>
<rect x="20" y="350" width="120" height="22" fill="white" stroke="black"/>
<text x="25" y="365" font-size="11">1.0</text>
<rect x="140" y="350" width="160" height="22" fill="white" stroke="black"/>
<text x="145" y="365" font-size="11">GCEC_B1_HVAC_CSF-B1-04</text>
<rect x="300" y="350" width="460" height="22" fill="white" stroke="black"/>
<text x="305" y="365" font-size="11">SF4-DP</text>
<rect x="760" y="350" width="180" height="22" fill="white" stroke="black"/>
<text x="765" y="365" font-size="11">Supply Fan 4 Differential Pressure</text>
<rect x="20" y="372" width="120" height="22" fill="white" stroke="black"/>
<text x="25" y="387" font-size="11">2.0</text>
<rect x="140" y="372" width="160" height="22" fill="white" stroke="black"/>
<text x="145" y="387" font-size="11">GCEC_B1_HVAC_CSF-B1-01</text>
<rect x="300" y="372" width="460" height="22" fill="white" stroke="black"/>
<text x="305" y="387" font-size="11">ZN-CO1</text>
<rect x="760" y="372" width="180" height="22" fill="white" stroke="black"/>
<text x="765" y="387" font-size="11">Zone CO 1</text>
<rect x="20" y="394" width="120" height="22" fill="white" stroke="black"/>
<text x="25" y="409" font-size="11">3.0</text>
<rect x="140" y="394" width="160" height="22" fill="white" stroke="black"/>
<text x="145" y="409" font-size="11">GCEC_B1_HVAC_CSF-B1-01</text>
<rect x="300" y="394" width="460" height="22" fill="white" stroke="black"/>
<text x="305" y="409" font-size="11">ZN-CO2</text>
<rect x="760" y="394" width="180" height="22" fill="white" stroke="black"/>
<text x="765" y="409" font-size="11">Zone CO 2</text>
<rect x="20" y="416" width="120" height="22" fill="white" stroke="black"/>
<text x="25" y="431" font-size="11">4.0</text>
<rect x="140" y="416" width="160" height="22" fill="white" stroke="black"/>
<text x="145" y="431" font-size="11">GCEC_B1_HVAC_CSF-B1-01</text>
<rect x="300" y="416" width="460" height="22" fill="white" stroke="black"/>
<text x="305" y="431" font-size="11">ZN-CO3</text>
<rect x="760" y="416" width="180" height="22" fill="white" stroke="black"/>
<text x="765" y="431" font-size="11">Zone CO 3</text>
<rect x="20" y="438" width="120" height="22" fill="white" stroke="black"/>
<text x="25" y="453" font-size="11">5.0</text>
<rect x="140" y="438" width="160" height="22" fill="white" stroke="black"/>
<text x="145" y="453" font-size="11">GCEC_B1_HVAC_CSF-B1-01</text>
<rect x="300" y="438" width="460" height="22" fill="white" stroke="black"/>
<text x="305" y="453" font-size="11">ZN-CO4</text>
<rect x="760" y="438" width="180" height="22" fill="white" stroke="black"/>
<text x="765" y="453" font-size="11">Zone CO 4</text>
<rect x="20" y="460" width="120" height="22" fill="white" stroke="black"/>
<text x="25" y="475" font-size="11">6.0</text>
<rect x="140" y="460" width="160" height="22" fill="white" stroke="black"/>
<text x="145" y="475" font-size="11">GCEC_B1_HVAC_CSF-B1-01</text>
<rect x="300" y="460" width="460" height="22" fill="white" stroke="black"/>
<text x="305" y="475" font-size="11">ZN-CO5</text>
<rect x="760" y="460" width="180" height="22" fill="white" stroke="black"/>
<text x="765" y="475" font-size="11">Zone CO 5</text>
<rect x="20" y="482" width="120" height="22" fill="white" stroke="black"/>
<text x="25" y="497" font-size="11">7.0</text>
<rect x="140" y="482" width="160" height="22" fill="white" stroke="black"/>
<text x="145" y="497" font-size="11">GCEC_B1_HVAC_CSF-B1-04</text>
<rect x="300" y="482" width="460" height="22" fill="white" stroke="black"/>
<text x="305" y="497" font-size="11">SF4-S</text>
<rect x="760" y="482" width="180" height="22" fill="white" stroke="black"/>
<text x="765" y="497" font-size="11">Supply Fan 4 Status</text>
<rect x="20" y="504" width="120" height="22" fill="white" stroke="black"/>
<text x="25" y="519" font-size="11">8.0</text>
<rect x="140" y="504" width="160" height="22" fill="white" stroke="black"/>
<text x="145" y="519" font-size="11">GCEC_B1_HVAC_CSF-B1-01</text>
<rect x="300" y="504" width="460" height="22" fill="white" stroke="black"/>
<text x="305" y="519" font-size="11">SF1-S</text>
<rect x="760" y="504" width="180" height="22" fill="white" stroke="black"/>
<text x="765" y="519" font-size="11">Supply Fan 1 Status</text>
<rect x="20" y="526" width="120" height="22" fill="white" stroke="black"/>
<text x="25" y="541" font-size="11">9.0</text>
<rect x="140" y="526" width="160" height="22" fill="white" stroke="black"/>
<text x="145" y="541" font-size="11"></text>
<rect x="300" y="526" width="460" height="22" fill="white" stroke="black"/>
<text x="305" y="541" font-size="11"></text>
<rect x="760" y="526" width="180" height="22" fill="white" stroke="black"/>
<text x="765" y="541" font-size="11"></text>
<rect x="20" y="548" width="120" height="22" fill="white" stroke="black"/>
<text x="25" y="563" font-size="11">1.0</text>
<rect x="140" y="548" width="160" height="22" fill="white" stroke="black"/>
<text x="145" y="563" font-size="11">GCEC_B1_HVAC_CSF-B1-01</text>
<rect x="300" y="548" width="460" height="22" fill="white" stroke="black"/>
<text x="305" y="563" font-size="11">SF1-C</text>
<rect x="760" y="548" width="180" height="22" fill="white" stroke="black"/>
<text x="765" y="563" font-size="11">Supply Fan 1 Command</text>
<rect x="20" y="570" width="120" height="22" fill="white" stroke="black"/>
<text x="25" y="585" font-size="11">2.0</text>
<rect x="140" y="570" width="160" height="22" fill="white" stroke="black"/>
<text x="145" y="585" font-size="11">GCEC_B1_HVAC_CSF-B1-02</text>
<rect x="300" y="570" width="460" height="22" fill="white" stroke="black"/>
<text x="305" y="585" font-size="11">SF2-C</text>
<rect x="760" y="570" width="180" height="22" fill="white" stroke="black"/>
<text x="765" y="585" font-size="11">Supply Fan 2 Command</text>
<rect x="20" y="592" width="120" height="22" fill="white" stroke="black"/>
<text x="25" y="607" font-size="11">3.0</text>
<rect x="140" y="592" width="160" height="22" fill="white" stroke="black"/>
<text x="145" y="607" font-size="11">GCEC_B1_HVAC_CSF-B1-04</text>
<rect x="300" y="592" width="460" height="22" fill="white" stroke="black"/>
<text x="305" y="607" font-size="11">SF4-C</text>
<rect x="760" y="592" width="180" height="22" fill="white" stroke="black"/>
<text x="765" y="607" font-size="11">Supply Fan 4 Command</text>
<rect x="20" y="614" width="120" height="22" fill="white" stroke="black"/>
<text x="25" y="629" font-size="11">4.0</text>
<rect x="140" y="614" width="160" height="22" fill="white" stroke="black"/>
<text x="145" y="629" font-size="11"></text>
<rect x="300" y="614" width="460" height="22" fill="white" stroke="black"/>
<text x="305" y="629" font-size="11"></text>
<rect x="760" y="614" width="180" height="22" fill="white" stroke="black"/>
<text x="765" y="629" font-size="11"></text>
<rect x="20" y="636" width="120" height="22" fill="white" stroke="black"/>
<text x="25" y="651" font-size="11">5.0</text>
<rect x="140" y="636" width="160" height="22" fill="white" stroke="black"/>
<text x="145" y="651" font-size="11"></text>
<rect x="300" y="636" width="460" height="22" fill="white" stroke="black"/>
<text x="305" y="651" font-size="11"></text>
<rect x="760" y="636" width="180" height="22" fill="white" stroke="black"/>
<text x="765" y="651" font-size="11"></text>
<rect x="20" y="658" width="120" height="22" fill="white" stroke="black"/>
<text x="25" y="673" font-size="11">6.0</text>
<rect x="140" y="658" width="160" height="22" fill="white" stroke="black"/>
<text x="145" y="673" font-size="11"></text>
<rect x="300" y="658" width="460" height="22" fill="white" stroke="black"/>
<text x="305" y="673" font-size="11"></text>
<rect x="760" y="658" width="180" height="22" fill="white" stroke="black"/>
<text x="765" y="673" font-size="11"></text>
<rect x="20" y="680" width="120" height="22" fill="white" stroke="black"/>
<text x="25" y="695" font-size="11">7.0</text>
<rect x="140" y="680" width="160" height="22" fill="white" stroke="black"/>
<text x="145" y="695" font-size="11">GCEC_B1_HVAC_CSF-B1-04</text>
<rect x="300" y="680" width="460" height="22" fill="white" stroke="black"/>
<text x="305" y="695" font-size="11">SF4-O</text>
<rect x="760" y="680" width="180" height="22" fill="white" stroke="black"/>
<text x="765" y="695" font-size="11">Supply Fan 4 Speed</text>
<rect x="20" y="702" width="120" height="22" fill="white" stroke="black"/>
<text x="25" y="717" font-size="11">8.0</text>
<rect x="140" y="702" width="160" height="22" fill="white" stroke="black"/>
<text x="145" y="717" font-size="11">GCEC_B1_HVAC_CSF-B1-01</text>
<rect x="300" y="702" width="460" height="22" fill="white" stroke="black"/>
<text x="305" y="717" font-size="11">SF1-O</text>
<rect x="760" y="702" width="180" height="22" fill="white" stroke="black"/>
<text x="765" y="717" font-size="11">Supply Fan 1 Speed</text>
<rect x="20" y="724" width="120" height="22" fill="white" stroke="black"/>
<text x="25" y="739" font-size="11">9.0</text>
<rect x="140" y="724" width="160" height="22" fill="white" stroke="black"/>
<text x="145" y="739" font-size="11">GCEC_B1_HVAC_CSF-B1-02</text>
<rect x="300" y="724" width="460" height="22" fill="white" stroke="black"/>
<text x="305" y="739" font-size="11">SF2-O</text>
<rect x="760" y="724" width="180" height="22" fill="white" stroke="black"/>
<text x="765" y="739" font-size="11">Supply Fan 2 Speed</text>
<rect x="20" y="746" width="120" height="22" fill="white" stroke="black"/>
<text x="25" y="761" font-size="11"></text>
<rect x="140" y="746" width="160" height="22" fill="white" stroke="black"/>
<text x="145" y="761" font-size="11"></text>
<rect x="300" y="746" width="460" height="22" fill="white" stroke="black"/>
<text x="305" y="761" font-size="11">1</text>
<rect x="760" y="746" width="180" height="22" fill="white" stroke="black"/>
<text x="765" y="761" font-size="11"></text>
<rect x="20" y="768" width="120" height="22" fill="white" stroke="black"/>
<text x="25" y="783" font-size="11"></text>
<rect x="140" y="768" width="160" height="22" fill="white" stroke="black"/>
<text x="145" y="783" font-size="11"></text>
<rect x="300" y="768" width="460" height="22" fill="white" stroke="black"/>
<text x="305" y="783" font-size="11">refer to system schedule</text>
<rect x="760" y="768" width="180" height="22" fill="white" stroke="black"/>
<text x="765" y="783" font-size="11"></text>
<rect x="20" y="790" width="120" height="22" fill="white" stroke="black"/>
<text x="25" y="805" font-size="11">1.0</text>
<rect x="140" y="790" width="160" height="22" fill="white" stroke="black"/>
<text x="145" y="805" font-size="11">GCEC_B1_HVAC_CSF-B1-02</text>
<rect x="300" y="790" width="460" height="22" fill="white" stroke="black"/>
<text x="305" y="805" font-size="11">ZN-CO6</text>
<rect x="760" y="790" width="180" height="22" fill="white" stroke="black"/>
<text x="765" y="805" font-size="11">Zone CO 6</text>
<rect x="20" y="812" width="120" height="22" fill="white" stroke="black"/>
<text x="25" y="827" font-size="11">2.0</text>
<rect x="140" y="812" width="160" height="22" fill="white" stroke="black"/>
<text x="145" y="827" font-size="11">GCEC_B1_HVAC_CSF-B1-02</text>
<rect x="300" y="812" width="460" height="22" fill="white" stroke="black"/>
<text x="305" y="827" font-size="11">ZN-CO7</text>
<rect x="760" y="812" width="180" height="22" fill="white" stroke="black"/>
<text x="765" y="827" font-size="11">Zone CO 7</text>
<rect x="20" y="834" width="120" height="22" fill="white" stroke="black"/>
<text x="25" y="849" font-size="11">3.0</text>
<rect x="140" y="834" width="160" height="22" fill="white" stroke="black"/>
<text x="145" y="849" font-size="11">GCEC_B1_HVAC_CSF-B1-02</text>
<rect x="300" y="834" width="460" height="22" fill="white" stroke="black"/>
<text x="305" y="849" font-size="11">ZN-CO8</text>
<rect x="760" y="834" width="180" height="22" fill="white" stroke="black"/>
<text x="765" y="849" font-size="11">Zone CO 8</text>
<rect x="20" y="856" width="120" height="22" fill="white" stroke="black"/>
<text x="25" y="871" font-size="11">4.0</text>
<rect x="140" y="856" width="160" height="22" fill="white" stroke="black"/>
<text x="145" y="871" font-size="11">GCEC_B1_HVAC_CSF-B1-02</text>
<rect x="300" y="856" width="460" height="22" fill="white" stroke="black"/>
<text x="305" y="871" font-size="11">ZN-CO9</text>
<rect x="760" y="856" width="180" height="22" fill="white" stroke="black"/>
<text x="765" y="871" font-size="11">Zone CO 9</text>
<rect x="20" y="878" width="120" height="22" fill="white" stroke="black"/>
<text x="25" y="893" font-size="11">5.0</text>
<rect x="140" y="878" width="160" height="22" fill="white" stroke="black"/>
<text x="145" y="893" font-size="11">GCEC_B1_HVAC_CSF-B1-02</text>
<rect x="300" y="878" width="460" height="22" fill="white" stroke="black"/>
<text x="305" y="893" font-size="11">ZN-CO10</text>
<rect x="760" y="878" width="180" height="22" fill="white" stroke="black"/>
<text x="765" y="893" font-size="11">Zone CO 10</text>
<rect x="20" y="900" width="120" height="22" fill="white" stroke="black"/>
<text x="25" y="915" font-size="11">6.0</text>
<rect x="140" y="900" width="160" height="22" fill="white" stroke="black"/>
<text x="145" y="915" font-size="11">GCEC_B1_HVAC_CSF-B1-02</text>
<rect x="300" y="900" width="460" height="22" fill="white" stroke="black"/>
<text x="305" y="915" font-size="11">SF2-A</text>
<rect x="760" y="900" width="180" height="22" fill="white" stroke="black"/>
<text x="765" y="915" font-size="11">Supply Fan 2 Fault</text>
<rect x="20" y="922" width="120" height="22" fill="white" stroke="black"/>
<text x="25" y="937" font-size="11">7.0</text>
<rect x="140" y="922" width="160" height="22" fill="white" stroke="black"/>
<text x="145" y="937" font-size="11">GCEC_B1_HVAC_JF-B1-01</text>
<rect x="300" y="922" width="460" height="22" fill="white" stroke="black"/>
<text x="305" y="937" font-size="11">JF1-S</text>
<rect x="760" y="922" width="180" height="22" fill="white" stroke="black"/>
<text x="765" y="937" font-size="11">Jet Fan 1 Status</text>
<rect x="20" y="944" width="120" height="22" fill="white" stroke="black"/>
<text x="25" y="959" font-size="11">8.0</text>
<rect x="140" y="944" width="160" height="22" fill="white" stroke="black"/>
<text x="145" y="959" font-size="11">GCEC_B1_HVAC_JF-B1-02</text>
<rect x="300" y="944" width="460" height="22" fill="white" stroke="black"/>
<text x="305" y="959" font-size="11">JF2-S</text>
<rect x="760" y="944" width="180" height="22" fill="white" stroke="black"/>
<text x="765" y="959" font-size="11">Jet Fan 2 Status</text>
<rect x="20" y="966" width="120" height="22" fill="white" stroke="black"/>
<text x="25" y="981" font-size="11">9.0</text>
<rect x="140" y="966" width="160" height="22" fill="white" stroke="black"/>
<text x="145" y="981" font-size="11">GCEC_B1_HVAC_JF-B1-03</text>
<rect x="300" y="966" width="460" height="22" fill="white" stroke="black"/>
<text x="305" y="981" font-size="11">JF3-S</text>
<rect x="760" y="966" width="180" height="22" fill="white" stroke="black"/>
<text x="765" y="981" font-size="11">Jet Fan 3 Status</text>
<rect x="20" y="988" width="120" height="22" fill="white" stroke="black"/>
<text x="25" y="1003" font-size="11">1.0</text>
<rect x="140" y="988" width="160" height="22" fill="white" stroke="black"/>
<text x="145" y="1003" font-size="11">GCEC_B1_HVAC_JF-B1-01</text>
<rect x="300" y="988" width="460" height="22" fill="white" stroke="black"/>
<text x="305" y="1003" font-size="11">JF1-S</text>
<rect x="760" y="988" width="180" height="22" fill="white" stroke="black"/>
<text x="765" y="1003" font-size="11">Jet Fan 1 Command</text>
<rect x="20" y="1010" width="120" height="22" fill="white" stroke="black"/>
<text x="25" y="1025" font-size="11">2.0</text>
<rect x="140" y="1010" width="160" height="22" fill="white" stroke="black"/>
<text x="145" y="1025" font-size="11">GCEC_B1_HVAC_JF-B1-02</text>
<rect x="300" y="1010" width="460" height="22" fill="white" stroke="black"/>
<text x="305" y="1025" font-size="11">JF2-S</text>
<rect x="760" y="1010" width="180" height="22" fill="white" stroke="black"/>
<text x="765" y="1025" font-size="11">Jet Fan 2 Command</text>
<rect x="20" y="1032" width="120" height="22" fill="white" stroke="black"/>
<text x="25" y="1047" font-size="11">3.0</text>
<rect x="140" y="1032" width="160" height="22" fill="white" stroke="black"/>
<text x="145" y="1047" font-size="11">GCEC_B1_HVAC_JF-B1-03</text>
<rect x="300" y="1032" width="460" height="22" fill="white" stroke="black"/>
<text x="305" y="1047" font-size="11">JF3-S</text>
<rect x="760" y="1032" width="180" height="22" fill="white" stroke="black"/>
<text x="765" y="1047" font-size="11">Jet Fan 3 Command</text>
<rect x="20" y="1054" width="120" height="22" fill="white" stroke="black"/>
<text x="25" y="1069" font-size="11">4.0</text>
<rect x="140" y="1054" width="160" height="22" fill="white" stroke="black"/>
<text x="145" y="1069" font-size="11">GCEC_B1_HVAC_JF-B1-03</text>
<rect x="300" y="1054" width="460" height="22" fill="white" stroke="black"/>
<text x="305" y="1069" font-size="11">JF3-O</text>
<rect x="760" y="1054" width="180" height="22" fill="white" stroke="black"/>
<text x="765" y="1069" font-size="11">Jet Fan 3 Speed</text>
<rect x="20" y="1076" width="120" height="22" fill="white" stroke="black"/>
<text x="25" y="1091" font-size="11">5.0</text>
<rect x="140" y="1076" width="160" height="22" fill="white" stroke="black"/>
<text x="145" y="1091" font-size="11"></text>
<rect x="300" y="1076" width="460" height="22" fill="white" stroke="black"/>
<text x="305" y="1091" font-size="11"></text>
<rect x="760" y="1076" width="180" height="22" fill="white" stroke="black"/>
<text x="765" y="1091" font-size="11"></text>
<rect x="20" y="1098" width="120" height="22" fill="white" stroke="black"/>
<text x="25" y="1113" font-size="11">6.0</text>
<rect x="140" y="1098" width="160" height="22" fill="white" stroke="black"/>
<text x="145" y="1113" font-size="11"></text>
<rect x="300" y="1098" width="460" height="22" fill="white" stroke="black"/>
<text x="305" y="1113" font-size="11"></text>
<rect x="760" y="1098" width="180" height="22" fill="white" stroke="black"/>
<text x="765" y="1113" font-size="11"></text>
<rect x="20" y="1120" width="120" height="22" fill="white" stroke="black"/>
<text x="25" y="1135" font-size="11">7.0</text>
<rect x="140" y="1120" width="160" height="22" fill="white" stroke="black"/>
<text x="145" y="1135" font-size="11"></text>
<rect x="300" y="1120" width="460" height="22" fill="white" stroke="black"/>
<text x="305" y="1135" font-size="11"></text>
<rect x="760" y="1120" width="180" height="22" fill="white" stroke="black"/>
<text x="765" y="1135" font-size="11"></text>
<rect x="20" y="1142" width="120" height="22" fill="white" stroke="black"/>
<text x="25" y="1157" font-size="11">8.0</text>
<rect x="140" y="1142" width="160" height="22" fill="white" stroke="black"/>
<text x="145" y="1157" font-size="11">GCEC_B1_HVAC_JF-B1-01</text>
<rect x="300" y="1142" width="460" height="22" fill="white" stroke="black"/>
<text x="305" y="1157" font-size="11">JF1-O</text>
<rect x="760" y="1142" width="180" height="22" fill="white" stroke="black"/>
<text x="765" y="1157" font-size="11">Jet Fan 1 Speed</text>
<rect x="20" y="1164" width="120" height="22" fill="white" stroke="black"/>
<text x="25" y="1179" font-size="11">9.0</text>
<rect x="140" y="1164" width="160" height="22" fill="white" stroke="black"/>
<text x="145" y="1179" font-size="11">GCEC_B1_HVAC_JF-B1-02</text>
<rect x="300" y="1164" width="460" height="22" fill="white" stroke="black"/>
<text x="305" y="1179" font-size="11">JF2-O</text>
<rect x="760" y="1164" width="180" height="22" fill="white" stroke="black"/>
<text x="765" y="1179" font-size="11">Jet Fan 2 Speed</text>
<rect x="20" y="1186" width="120" height="22" fill="white" stroke="black"/>
<text x="25" y="1201" font-size="11"></text>
<rect x="140" y="1186" width="160" height="22" fill="white" stroke="black"/>
<text x="145" y="1201" font-size="11"></text>
<rect x="300" y="1186" width="460" height="22" fill="white" stroke="black"/>
<text x="305" y="1201" font-size="11">1</text>
<rect x="760" y="1186" width="180" height="22" fill="white" stroke="black"/>
<text x="765" y="1201" font-size="11"></text>
<rect x="20" y="1208" width="120" height="22" fill="white" stroke="black"/>
<text x="25" y="1223" font-size="11"></text>
<rect x="140" y="1208" width="160" height="22" fill="white" stroke="black"/>
<text x="145" y="1223" font-size="11"></text>
<rect x="300" y="1208" width="460" height="22" fill="white" stroke="black"/>
<text x="305" y="1223" font-size="11">refer to system schedule</text>
<rect x="760" y="1208" width="180" height="22" fill="white" stroke="black"/>
<text x="765" y="1223" font-size="11"></text>
<rect x="20" y="1230" width="120" height="22" fill="white" stroke="black"/>
<text x="25" y="1245" font-size="11">1.0</text>
<rect x="140" y="1230" width="160" height="22" fill="white" stroke="black"/>
<text x="145" y="1245" font-size="11">GCEC_B1_HVAC_CSF-B1-01</text>
<rect x="300" y="1230" width="460" height="22" fill="white" stroke="black"/>
<text x="305" y="1245" font-size="11">SF1-A</text>
<rect x="760" y="1230" width="180" height="22" fill="white" stroke="black"/>
<text x="765" y="1245" font-size="11">Supply Fan 1 Fault</text>
<rect x="20" y="1252" width="120" height="22" fill="white" stroke="black"/>
<text x="25" y="1267" font-size="11">2.0</text>
<rect x="140" y="1252" width="160" height="22" fill="white" stroke="black"/>
<text x="145" y="1267" font-size="11">GCEC_B1_HVAC_CSF-B1-04</text>
<rect x="300" y="1252" width="460" height="22" fill="white" stroke="black"/>
<text x="305" y="1267" font-size="11">SF4-A</text>
<rect x="760" y="1252" width="180" height="22" fill="white" stroke="black"/>
<text x="765" y="1267" font-size="11">Supply Fan 4 Fault</text>
<rect x="20" y="1274" width="120" height="22" fill="white" stroke="black"/>
<text x="25" y="1289" font-size="11">3.0</text>
<rect x="140" y="1274" width="160" height="22" fill="white" stroke="black"/>
<text x="145" y="1289" font-size="11">GCEC_B1_HVAC_JF-B1-01</text>
<rect x="300" y="1274" width="460" height="22" fill="white" stroke="black"/>
<text x="305" y="1289" font-size="11">JF1-A</text>
<rect x="760" y="1274" width="180" height="22" fill="white" stroke="black"/>
<text x="765" y="1289" font-size="11">Jet Fan 1 Fault</text>
<rect x="20" y="1296" width="120" height="22" fill="white" stroke="black"/>
<text x="25" y="1311" font-size="11">4.0</text>
<rect x="140" y="1296" width="160" height="22" fill="white" stroke="black"/>
<text x="145" y="1311" font-size="11">GCEC_B1_HVAC_JF-B1-02</text>
<rect x="300" y="1296" width="460" height="22" fill="white" stroke="black"/>
<text x="305" y="1311" font-size="11">JF2-A</text>
<rect x="760" y="1296" width="180" height="22" fill="white" stroke="black"/>
<text x="765" y="1311" font-size="11">Jet Fan 2 Fault</text>
<rect x="20" y="1318" width="120" height="22" fill="white" stroke="black"/>
<text x="25" y="1333" font-size="11">5.0</text>
<rect x="140" y="1318" width="160" height="22" fill="white" stroke="black"/>
<text x="145" y="1333" font-size="11">GCEC_B1_HVAC_JF-B1-03</text>
<rect x="300" y="1318" width="460" height="22" fill="white" stroke="black"/>
<text x="305" y="1333" font-size="11">JF3-A</text>
<rect x="760" y="1318" width="180" height="22" fill="white" stroke="black"/>
<text x="765" y="1333" font-size="11">Jet Fan 3 Fault</text>
<rect x="20" y="1340" width="120" height="22" fill="white" stroke="black"/>
<text x="25" y="1355" font-size="11">6.0</text>
<rect x="140" y="1340" width="160" height="22" fill="white" stroke="black"/>
<text x="145" y="1355" font-size="11">GCEC_B1_HVAC_OAF-B1-05</text>
<rect x="300" y="1340" width="460" height="22" fill="white" stroke="black"/>
<text x="305" y="1355" font-size="11">OAF5-A</text>
<rect x="760" y="1340" width="180" height="22" fill="white" stroke="black"/>
<text x="765" y="1355" font-size="11">Outside Air Fan 5 Fault</text>
<rect x="20" y="1362" width="120" height="22" fill="white" stroke="black"/>
<text x="25" y="1377" font-size="11">7.0</text>
<rect x="140" y="1362" width="160" height="22" fill="white" stroke="black"/>
<text x="145" y="1377" font-size="11">GCEC_B1_HVAC_OAF-B1-05</text>
<rect x="300" y="1362" width="460" height="22" fill="white" stroke="black"/>
<text x="305" y="1377" font-size="11">OAF5-S</text>
<rect x="760" y="1362" width="180" height="22" fill="white" stroke="black"/>
<text x="765" y="1377" font-size="11">Outside Air Fan 5 Status</text>
<rect x="20" y="1384" width="120" height="22" fill="white" stroke="black"/>
<text x="25" y="1399" font-size="11">8.0</text>
<rect x="140" y="1384" width="160" height="22" fill="white" stroke="black"/>
<text x="145" y="1399" font-size="11">GCEC_B1_HVAC_OAF-B1-04</text>
<rect x="300" y="1384" width="460" height="22" fill="white" stroke="black"/>
<text x="305" y="1399" font-size="11">OAF4-A</text>
<rect x="760" y="1384" width="180" height="22" fill="white" stroke="black"/>
<text x="765" y="1399" font-size="11">Outside Air Fan 4 Fault</text>
<rect x="20" y="1406" width="120" height="22" fill="white" stroke="black"/>
<text x="25" y="1421" font-size="11">9.0</text>
<rect x="140" y="1406" width="160" height="22" fill="white" stroke="black"/>
<text x="145" y="1421" font-size="11">GCEC_B1_HVAC_OAF-B1-04</text>
<rect x="300" y="1406" width="460" height="22" fill="white" stroke="black"/>
<text x="305" y="1421" font-size="11">OAF4-S</text>
<rect x="760" y="1406" width="180" height="22" fill="white" stroke="black"/>
<text x="765" y="1421" font-size="11">Outside Air Fan 4 Status</text>
<rect x="20" y="1428" width="120" height="22" fill="white" stroke="black"/>
<text x="25" y="1443" font-size="11">1.0</text>
<rect x="140" y="1428" width="160" height="22" fill="white" stroke="black"/>
<text x="145" y="1443" font-size="11"></text>
<rect x="300" y="1428" width="460" height="22" fill="white" stroke="black"/>
<text x="305" y="1443" font-size="11"></text>
<rect x="760" y="1428" width="180" height="22" fill="white" stroke="black"/>
<text x="765" y="1443" font-size="11"></text>
<rect x="20" y="1450" width="120" height="22" fill="white" stroke="black"/>
<text x="25" y="1465" font-size="11">2.0</text>
<rect x="140" y="1450" width="160" height="22" fill="white" stroke="black"/>
<text x="145" y="1465" font-size="11">GCEC_B1_HVAC_OAF-B1-04</text>
<rect x="300" y="1450" width="460" height="22" fill="white" stroke="black"/>
<text x="305" y="1465" font-size="11">OAF-C</text>
<rect x="760" y="1450" width="180" height="22" fill="white" stroke="black"/>
<text x="765" y="1465" font-size="11">Outside Air Fan Command</text>
<rect x="20" y="1472" width="120" height="22" fill="white" stroke="black"/>
<text x="25" y="1487" font-size="11">3.0</text>
<rect x="140" y="1472" width="160" height="22" fill="white" stroke="black"/>
<text x="145" y="1487" font-size="11">GCEC_B1_HVAC_OAF-B1-05</text>
<rect x="300" y="1472" width="460" height="22" fill="white" stroke="black"/>
<text x="305" y="1487" font-size="11">OAF-C</text>
<rect x="760" y="1472" width="180" height="22" fill="white" stroke="black"/>
<text x="765" y="1487" font-size="11">Outside Air Fan Command</text>
<rect x="20" y="1494" width="120" height="22" fill="white" stroke="black"/>
<text x="25" y="1509" font-size="11">4.0</text>
<rect x="140" y="1494" width="160" height="22" fill="white" stroke="black"/>
<text x="145" y="1509" font-size="11"></text>
<rect x="300" y="1494" width="460" height="22" fill="white" stroke="black"/>
<text x="305" y="1509" font-size="11"></text>
<rect x="760" y="1494" width="180" height="22" fill="white" stroke="black"/>
<text x="765" y="1509" font-size="11"></text>
<rect x="20" y="1516" width="120" height="22" fill="white" stroke="black"/>
<text x="25" y="1531" font-size="11">5.0</text>
<rect x="140" y="1516" width="160" height="22" fill="white" stroke="black"/>
<text x="145" y="1531" font-size="11"></text>
<rect x="300" y="1516" width="460" height="22" fill="white" stroke="black"/>
<text x="305" y="1531" font-size="11"></text>
<rect x="760" y="1516" width="180" height="22" fill="white" stroke="black"/>
<text x="765" y="1531" font-size="11"></text>
<rect x="20" y="1538" width="120" height="22" fill="white" stroke="black"/>
<text x="25" y="1553" font-size="11">6.0</text>
<rect x="140" y="1538" width="160" height="22" fill="white" stroke="black"/>
<text x="145" y="1553" font-size="11"></text>
<rect x="300" y="1538" width="460" height="22" fill="white" stroke="black"/>
<text x="305" y="1553" font-size="11"></text>
<rect x="760" y="1538" width="180" height="22" fill="white" stroke="black"/>
<text x="765" y="1553" font-size="11"></text>
<rect x="20" y="1560" width="120" height="22" fill="white" stroke="black"/>
<text x="25" y="1575" font-size="11">7.0</text>
<rect x="140" y="1560" width="160" height="22" fill="white" stroke="black"/>
<text x="145" y="1575" font-size="11"></text>
<rect x="300" y="1560" width="460" height="22" fill="white" stroke="black"/>
<text x="305" y="1575" font-size="11"></text>
<rect x="760" y="1560" width="180" height="22" fill="white" stroke="black"/>
<text x="765" y="1575" font-size="11"></text>
<rect x="20" y="1582" width="120" height="22" fill="white" stroke="black"/>
<text x="25" y="1597" font-size="11">8.0</text>
<rect x="140" y="1582" width="160" height="22" fill="white" stroke="black"/>
<text x="145" y="1597" font-size="11"></text>
<rect x="300" y="1582" width="460" height="22" fill="white" stroke="black"/>
<text x="305" y="1597" font-size="11"></text>
<rect x="760" y="1582" width="180" height="22" fill="white" stroke="black"/>
<text x="765" y="1597" font-size="11"></text>
<rect x="20" y="1604" width="120" height="22" fill="white" stroke="black"/>
<text x="25" y="1619" font-size="11">9.0</text>
<rect x="140" y="1604" width="160" height="22" fill="white" stroke="black"/>
<text x="145" y="1619" font-size="11"></text>
<rect x="300" y="1604" width="460" height="22" fill="white" stroke="black"/>
<text x="305" y="1619" font-size="11"></text>
<rect x="760" y="1604" width="180" height="22" fill="white" stroke="black"/>
<text x="765" y="1619" font-size="11"></text>
<rect x="20" y="1626" width="120" height="22" fill="white" stroke="black"/>
<text x="25" y="1641" font-size="11"></text>
<rect x="140" y="1626" width="160" height="22" fill="white" stroke="black"/>
<text x="145" y="1641" font-size="11"></text>
<rect x="300" y="1626" width="460" height="22" fill="white" stroke="black"/>
<text x="305" y="1641" font-size="11">1</text>
<rect x="760" y="1626" width="180" height="22" fill="white" stroke="black"/>
<text x="765" y="1641" font-size="11"></text>
<rect x="20" y="1648" width="120" height="22" fill="white" stroke="black"/>
<text x="25" y="1663" font-size="11"></text>
<rect x="140" y="1648" width="160" height="22" fill="white" stroke="black"/>
<text x="145" y="1663" font-size="11"></text>
<rect x="300" y="1648" width="460" height="22" fill="white" stroke="black"/>
<text x="305" y="1663" font-size="11">refer to system schedule</text>
<rect x="760" y="1648" width="180" height="22" fill="white" stroke="black"/>
<text x="765" y="1663" font-size="11"></text>
<rect x="20" y="1670" width="120" height="22" fill="white" stroke="black"/>
<text x="25" y="1685" font-size="11">2.0</text>
<rect x="140" y="1670" width="160" height="22" fill="white" stroke="black"/>
<text x="145" y="1685" font-size="11">GCEC_B1_AIR_COMP_1</text>
<rect x="300" y="1670" width="460" height="22" fill="white" stroke="black"/>
<text x="305" y="1685" font-size="11">COMP-FLT</text>
<rect x="760" y="1670" width="180" height="22" fill="white" stroke="black"/>
<text x="765" y="1685" font-size="11">Compressor Fault</text>
<rect x="20" y="1692" width="120" height="22" fill="white" stroke="black"/>
<text x="25" y="1707" font-size="11">3.0</text>
<rect x="140" y="1692" width="160" height="22" fill="white" stroke="black"/>
<text x="145" y="1707" font-size="11">GCEC_B1_AIR_COMP_2</text>
<rect x="300" y="1692" width="460" height="22" fill="white" stroke="black"/>
<text x="305" y="1707" font-size="11">COMP-FLT</text>
<rect x="760" y="1692" width="180" height="22" fill="white" stroke="black"/>
<text x="765" y="1707" font-size="11">Compressor Fault</text>
<rect x="20" y="1714" width="120" height="22" fill="white" stroke="black"/>
<text x="25" y="1729" font-size="11">4.0</text>
<rect x="140" y="1714" width="160" height="22" fill="white" stroke="black"/>
<text x="145" y="1729" font-size="11">GCEC_B1_HVAC_PAC-B1-04</text>
<rect x="300" y="1714" width="460" height="22" fill="white" stroke="black"/>
<text x="305" y="1729" font-size="11">UNIT-S</text>
<rect x="760" y="1714" width="180" height="22" fill="white" stroke="black"/>
<text x="765" y="1729" font-size="11">Unit Status</text>
<rect x="20" y="1736" width="120" height="22" fill="white" stroke="black"/>
<text x="25" y="1751" font-size="11">5.0</text>
<rect x="140" y="1736" width="160" height="22" fill="white" stroke="black"/>
<text x="145" y="1751" font-size="11">GCEC_B1_HVAC_PAC-B1-04</text>
<rect x="300" y="1736" width="460" height="22" fill="white" stroke="black"/>
<text x="305" y="1751" font-size="11">PB-S</text>
<rect x="760" y="1736" width="180" height="22" fill="white" stroke="black"/>
<text x="765" y="1751" font-size="11">Manual Push Button Status</text>
<rect x="20" y="1758" width="120" height="22" fill="white" stroke="black"/>
<text x="25" y="1773" font-size="11">6.0</text>
<rect x="140" y="1758" width="160" height="22" fill="white" stroke="black"/>
<text x="145" y="1773" font-size="11"></text>
<rect x="300" y="1758" width="460" height="22" fill="white" stroke="black"/>
<text x="305" y="1773" font-size="11"></text>
<rect x="760" y="1758" width="180" height="22" fill="white" stroke="black"/>
<text x="765" y="1773" font-size="11"></text>
<rect x="20" y="1780" width="120" height="22" fill="white" stroke="black"/>
<text x="25" y="1795" font-size="11">7.0</text>
<rect x="140" y="1780" width="160" height="22" fill="white" stroke="black"/>
<text x="145" y="1795" font-size="11"></text>
<rect x="300" y="1780" width="460" height="22" fill="white" stroke="black"/>
<text x="305" y="1795" font-size="11"></text>
<rect x="760" y="1780" width="180" height="22" fill="white" stroke="black"/>
<text x="765" y="1795" font-size="11"></text>
<rect x="20" y="1802" width="120" height="22" fill="white" stroke="black"/>
<text x="25" y="1817" font-size="11">8.0</text>
<rect x="140" y="1802" width="160" height="22" fill="white" stroke="black"/>
<text x="145" y="1817" font-size="11">GCEC_B1_HVAC_PAC-B1-04</text>
<rect x="300" y="1802" width="460" height="22" fill="white" stroke="black"/>
<text x="305" y="1817" font-size="11">CCW-S</text>
<rect x="760" y="1802" width="180" height="22" fill="white" stroke="black"/>
<text x="765" y="1817" font-size="11">Unit Status</text>
<rect x="20" y="1824" width="120" height="22" fill="white" stroke="black"/>
<text x="25" y="1839" font-size="11">9.0</text>
<rect x="140" y="1824" width="160" height="22" fill="white" stroke="black"/>
<text x="145" y="1839" font-size="11">GCEC_B1_HVAC_PAC-B1-04</text>
<rect x="300" y="1824" width="460" height="22" fill="white" stroke="black"/>
<text x="305" y="1839" font-size="11">UNIT-FLT</text>
<rect x="760" y="1824" width="180" height="22" fill="white" stroke="black"/>
<text x="765" y="1839" font-size="11">Unit Fault</text>
<rect x="20" y="1846" width="120" height="22" fill="white" stroke="black"/>
<text x="25" y="1861" font-size="11">1.0</text>
<rect x="140" y="1846" width="160" height="22" fill="white" stroke="black"/>
<text x="145" y="1861" font-size="11"></text>
<rect x="300" y="1846" width="460" height="22" fill="white" stroke="black"/>
<text x="305" y="1861" font-size="11"></text>
<rect x="760" y="1846" width="180" height="22" fill="white" stroke="black"/>
<text x="765" y="1861" font-size="11"></text>
<rect x="20" y="1868" width="120" height="22" fill="white" stroke="black"/>
<text x="25" y="1883" font-size="11">2.0</text>
<rect x="140" y="1868" width="160" height="22" fill="white" stroke="black"/>
<text x="145" y="1883" font-size="11">GCEC_B1_HVAC_PAC-B1-04</text>
<rect x="300" y="1868" width="460" height="22" fill="white" stroke="black"/>
<text x="305" y="1883" font-size="11">COMP-C</text>
<rect x="760" y="1868" width="180" height="22" fill="white" stroke="black"/>
<text x="765" y="1883" font-size="11">Compressor Command</text>
<rect x="20" y="1890" width="120" height="22" fill="white" stroke="black"/>
<text x="25" y="1905" font-size="11">3.0</text>
<rect x="140" y="1890" width="160" height="22" fill="white" stroke="black"/>
<text x="145" y="1905" font-size="11">GCEC_B1_HVAC_PAC-B1-04</text>
<rect x="300" y="1890" width="460" height="22" fill="white" stroke="black"/>
<text x="305" y="1905" font-size="11">PB-IND</text>
<rect x="760" y="1890" width="180" height="22" fill="white" stroke="black"/>
<text x="765" y="1905" font-size="11">Manual Push Button LED</text>
<rect x="20" y="1912" width="120" height="22" fill="white" stroke="black"/>
<text x="25" y="1927" font-size="11">4.0</text>
<rect x="140" y="1912" width="160" height="22" fill="white" stroke="black"/>
<text x="145" y="1927" font-size="11">GCEC_B1_HVAC_PAC-B1-04</text>
<rect x="300" y="1912" width="460" height="22" fill="white" stroke="black"/>
<text x="305" y="1927" font-size="11">CW-O</text>
<rect x="760" y="1912" width="180" height="22" fill="white" stroke="black"/>
<text x="765" y="1927" font-size="11">Isolation Valve Command</text>
<rect x="20" y="1934" width="120" height="22" fill="white" stroke="black"/>
<text x="25" y="1949" font-size="11">5.0</text>
<rect x="140" y="1934" width="160" height="22" fill="white" stroke="black"/>
<text x="145" y="1949" font-size="11">GCEC_B1_AIR_COMP_1</text>
<rect x="300" y="1934" width="460" height="22" fill="white" stroke="black"/>
<text x="305" y="1949" font-size="11">COMP-C</text>
<rect x="760" y="1934" width="180" height="22" fill="white" stroke="black"/>
<text x="765" y="1949" font-size="11">Compressor Command</text>
<rect x="20" y="1956" width="120" height="22" fill="white" stroke="black"/>
<text x="25" y="1971" font-size="11">6.0</text>
<rect x="140" y="1956" width="160" height="22" fill="white" stroke="black"/>
<text x="145" y="1971" font-size="11">GCEC_B1_AIR_COMP_2</text>
<rect x="300" y="1956" width="460" height="22" fill="white" stroke="black"/>
<text x="305" y="1971" font-size="11">COMP-C</text>
<rect x="760" y="1956" width="180" height="22" fill="white" stroke="black"/>
<text x="765" y="1971" font-size="11">Compressor Command</text>
<rect x="20" y="1978" width="120" height="22" fill="white" stroke="black"/>
<text x="25" y="1993" font-size="11">7.0</text>
<rect x="140" y="1978" width="160" height="22" fill="white" stroke="black"/>
<text x="145" y="1993" font-size="11">GCEC_B1_HVAC_PAC-B1-04</text>
<rect x="300" y="1978" width="460" height="22" fill="white" stroke="black"/>
<text x="305" y="1993" font-size="11">UNIT-C</text>
<rect x="760" y="1978" width="180" height="22" fill="white" stroke="black"/>
<text x="765" y="1993" font-size="11">Fan High Speed</text>
<rect x="20" y="2000" width="120" height="22" fill="white" stroke="black"/>
<text x="25" y="2015" font-size="11">8.0</text>
<rect x="140" y="2000" width="160" height="22" fill="white" stroke="black"/>
<text x="145" y="2015" font-size="11"></text>
<rect x="300" y="2000" width="460" height="22" fill="white" stroke="black"/>
<text x="305" y="2015" font-size="11"></text>
<rect x="760" y="2000" width="180" height="22" fill="white" stroke="black"/>
<text x="765" y="2015" font-size="11"></text>
<rect x="20" y="2022" width="120" height="22" fill="white" stroke="black"/>
<text x="25" y="2037" font-size="11">9.0</text>
<rect x="140" y="2022" width="160" height="22" fill="white" stroke="black"/>
<text x="145" y="2037" font-size="11"></text>
<rect x="300" y="2022" width="460" height="22" fill="white" stroke="black"/>
<text x="305" y="2037" font-size="11"></text>
<rect x="760" y="2022" width="180" height="22" fill="white" stroke="black"/>
<text x="765" y="2037" font-size="11"></text>
</svg>