<svg width="1200" height="1994" xmlns="http://www.w3.org/2000/svg">
<rect x="20" y="40" width="240" height="24" fill="#e5e7eb" stroke="black"/>
<text x="24" y="54" font-weight="bold">SYSTEM</text>
<rect x="260" y="40" width="260" height="24" fill="#e5e7eb" stroke="black"/>
<text x="264" y="54" font-weight="bold">OBJECT</text>
<rect x="520" y="40" width="360" height="24" fill="#e5e7eb" stroke="black"/>
<text x="524" y="54" font-weight="bold">DESCRIPTION</text>
<rect x="900" y="40" width="260" height="24" fill="#e5e7eb" stroke="black"/>
<text x="904" y="54" font-weight="bold">SIGNAL</text>
<rect x="20" y="64" width="240" height="42" fill="white" stroke="black"/>
<rect x="260" y="64" width="260" height="42" fill="white" stroke="black"/>
<text x="264" y="78" font-size="12">Geelong Convention &amp;</text>
<text x="264" y="96" font-size="12">Event Center</text>
<rect x="520" y="64" width="360" height="42" fill="white" stroke="black"/>
<rect x="900" y="64" width="260" height="42" fill="white" stroke="black"/>
<rect x="20" y="106" width="240" height="24" fill="white" stroke="black"/>
<rect x="260" y="106" width="260" height="24" fill="white" stroke="black"/>
<text x="264" y="120" font-size="12">Carpark Ventilation</text>
<rect x="520" y="106" width="360" height="24" fill="white" stroke="black"/>
<rect x="900" y="106" width="260" height="24" fill="white" stroke="black"/>
<rect x="20" y="130" width="240" height="6" fill="white" stroke="black"/>
<rect x="260" y="130" width="260" height="6" fill="white" stroke="black"/>
<rect x="520" y="130" width="360" height="6" fill="white" stroke="black"/>
<rect x="900" y="130" width="260" height="6" fill="white" stroke="black"/>
<rect x="20" y="136" width="240" height="6" fill="white" stroke="black"/>
<rect x="260" y="136" width="260" height="6" fill="white" stroke="black"/>
<rect x="520" y="136" width="360" height="6" fill="white" stroke="black"/>
<rect x="900" y="136" width="260" height="6" fill="white" stroke="black"/>
<rect x="20" y="142" width="240" height="6" fill="white" stroke="black"/>
<rect x="260" y="142" width="260" height="6" fill="white" stroke="black"/>
<rect x="520" y="142" width="360" height="6" fill="white" stroke="black"/>
<rect x="900" y="142" width="260" height="6" fill="white" stroke="black"/>
<rect x="20" y="148" width="240" height="42" fill="white" stroke="black"/>
<rect x="260" y="148" width="260" height="42" fill="white" stroke="black"/>
<rect x="520" y="148" width="360" height="42" fill="white" stroke="black"/>
<rect x="900" y="148" width="260" height="42" fill="white" stroke="black"/>
<text x="904" y="162" font-size="12">Revision history:</text>
<text x="904" y="180" font-size="12">Rev #</text>
<rect x="20" y="190" width="240" height="24" fill="white" stroke="black"/>
<rect x="260" y="190" width="260" height="24" fill="white" stroke="black"/>
<rect x="520" y="190" width="360" height="24" fill="white" stroke="black"/>
<text x="524" y="204" font-size="12">Project Site</text>
<rect x="900" y="190" width="260" height="24" fill="white" stroke="black"/>
<text x="904" y="204" font-size="12">A</text>
<rect x="20" y="214" width="240" height="24" fill="white" stroke="black"/>
<rect x="260" y="214" width="260" height="24" fill="white" stroke="black"/>
<rect x="520" y="214" width="360" height="24" fill="white" stroke="black"/>
<rect x="900" y="214" width="260" height="24" fill="white" stroke="black"/>
<text x="904" y="228" font-size="12">B</text>
<rect x="20" y="238" width="240" height="24" fill="white" stroke="black"/>
<rect x="260" y="238" width="260" height="24" fill="white" stroke="black"/>
<rect x="520" y="238" width="360" height="24" fill="white" stroke="black"/>
<rect x="900" y="238" width="260" height="24" fill="white" stroke="black"/>
<text x="904" y="252" font-size="12">D</text>
<rect x="20" y="262" width="240" height="24" fill="white" stroke="black"/>
<rect x="260" y="262" width="260" height="24" fill="white" stroke="black"/>
<rect x="520" y="262" width="360" height="24" fill="white" stroke="black"/>
<text x="524" y="276" font-size="12">Mechanical Contractor</text>
<rect x="900" y="262" width="260" height="24" fill="white" stroke="black"/>
<text x="904" y="276" font-size="12">E</text>
<rect x="20" y="286" width="240" height="24" fill="white" stroke="black"/>
<rect x="260" y="286" width="260" height="24" fill="white" stroke="black"/>
<rect x="520" y="286" width="360" height="24" fill="white" stroke="black"/>
<text x="524" y="300" font-size="12">Prinson Jacob</text>
<rect x="900" y="286" width="260" height="24" fill="white" stroke="black"/>
<rect x="20" y="310" width="240" height="24" fill="white" stroke="black"/>
<rect x="260" y="310" width="260" height="24" fill="white" stroke="black"/>
<rect x="520" y="310" width="360" height="24" fill="white" stroke="black"/>
<text x="524" y="324" font-size="12">Aftab Ahmad</text>
<rect x="900" y="310" width="260" height="24" fill="white" stroke="black"/>
<rect x="20" y="334" width="240" height="6" fill="white" stroke="black"/>
<rect x="260" y="334" width="260" height="6" fill="white" stroke="black"/>
<rect x="520" y="334" width="360" height="6" fill="white" stroke="black"/>
<rect x="900" y="334" width="260" height="6" fill="white" stroke="black"/>
<rect x="20" y="340" width="240" height="24" fill="white" stroke="black"/>
<rect x="260" y="340" width="260" height="24" fill="white" stroke="black"/>
<rect x="520" y="340" width="360" height="24" fill="white" stroke="black"/>
<rect x="900" y="340" width="260" height="24" fill="white" stroke="black"/>
<text x="904" y="354" font-size="12">By:</text>
<rect x="20" y="364" width="240" height="42" fill="white" stroke="black"/>
<rect x="260" y="364" width="260" height="42" fill="white" stroke="black"/>
<text x="264" y="378" font-size="12">M4-CGE09090</text>
<rect x="520" y="364" width="360" height="42" fill="white" stroke="black"/>
<rect x="900" y="364" width="260" height="42" fill="white" stroke="black"/>
<text x="904" y="378" font-size="12">CARPARK VENTILATION</text>
<text x="904" y="396" font-size="12">FANS</text>
<rect x="20" y="406" width="240" height="24" fill="white" stroke="black"/>
<rect x="260" y="406" width="260" height="24" fill="white" stroke="black"/>
<text x="264" y="420" font-size="12">1</text>
<rect x="520" y="406" width="360" height="24" fill="white" stroke="black"/>
<rect x="900" y="406" width="260" height="24" fill="white" stroke="black"/>
<text x="904" y="420" font-size="12">MSSB-B1-01</text>
<rect x="20" y="430" width="240" height="24" fill="white" stroke="black"/>
<text x="24" y="444" font-size="12">GCEC_B1_HVAC_CSF-B1-04</text>
<rect x="260" y="430" width="260" height="24" fill="white" stroke="black"/>
<text x="264" y="444" font-size="12">SF4-DP</text>
<rect x="520" y="430" width="360" height="24" fill="white" stroke="black"/>
<text x="524" y="444" font-size="12">Supply Fan 4 Differential Pressure</text>
<rect x="900" y="430" width="260" height="24" fill="white" stroke="black"/>
<text x="904" y="444" font-size="12">0-10Vdc</text>
<rect x="20" y="454" width="240" height="24" fill="white" stroke="black"/>
<text x="24" y="468" font-size="12">GCEC_B1_HVAC_CSF-B1-01</text>
<rect x="260" y="454" width="260" height="24" fill="white" stroke="black"/>
<text x="264" y="468" font-size="12">ZN-CO1</text>
<rect x="520" y="454" width="360" height="24" fill="white" stroke="black"/>
<text x="524" y="468" font-size="12">Zone CO 1</text>
<rect x="900" y="454" width="260" height="24" fill="white" stroke="black"/>
<text x="904" y="468" font-size="12">0-10Vdc</text>
<rect x="20" y="478" width="240" height="24" fill="white" stroke="black"/>
<text x="24" y="492" font-size="12">GCEC_B1_HVAC_CSF-B1-01</text>
<rect x="260" y="478" width="260" height="24" fill="white" stroke="black"/>
<text x="264" y="492" font-size="12">ZN-CO2</text>
<rect x="520" y="478" width="360" height="24" fill="white" stroke="black"/>
<text x="524" y="492" font-size="12">Zone CO 2</text>
<rect x="900" y="478" width="260" height="24" fill="white" stroke="black"/>
<text x="904" y="492" font-size="12">0-10Vdc</text>
<rect x="20" y="502" width="240" height="24" fill="white" stroke="black"/>
<text x="24" y="516" font-size="12">GCEC_B1_HVAC_CSF-B1-01</text>
<rect x="260" y="502" width="260" height="24" fill="white" stroke="black"/>
<text x="264" y="516" font-size="12">ZN-CO3</text>
<rect x="520" y="502" width="360" height="24" fill="white" stroke="black"/>
<text x="524" y="516" font-size="12">Zone CO 3</text>
<rect x="900" y="502" width="260" height="24" fill="white" stroke="black"/>
<text x="904" y="516" font-size="12">0-10Vdc</text>
<rect x="20" y="526" width="240" height="24" fill="white" stroke="black"/>
<text x="24" y="540" font-size="12">GCEC_B1_HVAC_CSF-B1-01</text>
<rect x="260" y="526" width="260" height="24" fill="white" stroke="black"/>
<text x="264" y="540" font-size="12">ZN-CO4</text>
<rect x="520" y="526" width="360" height="24" fill="white" stroke="black"/>
<text x="524" y="540" font-size="12">Zone CO 4</text>
<rect x="900" y="526" width="260" height="24" fill="white" stroke="black"/>
<text x="904" y="540" font-size="12">0-10Vdc</text>
<rect x="20" y="550" width="240" height="24" fill="white" stroke="black"/>
<text x="24" y="564" font-size="12">GCEC_B1_HVAC_CSF-B1-01</text>
<rect x="260" y="550" width="260" height="24" fill="white" stroke="black"/>
<text x="264" y="564" font-size="12">ZN-CO5</text>
<rect x="520" y="550" width="360" height="24" fill="white" stroke="black"/>
<text x="524" y="564" font-size="12">Zone CO 5</text>
<rect x="900" y="550" width="260" height="24" fill="white" stroke="black"/>
<text x="904" y="564" font-size="12">0-10Vdc</text>
<rect x="20" y="574" width="240" height="24" fill="white" stroke="black"/>
<text x="24" y="588" font-size="12">GCEC_B1_HVAC_CSF-B1-04</text>
<rect x="260" y="574" width="260" height="24" fill="white" stroke="black"/>
<text x="264" y="588" font-size="12">SF4-S</text>
<rect x="520" y="574" width="360" height="24" fill="white" stroke="black"/>
<text x="524" y="588" font-size="12">Supply Fan 4 Status</text>
<rect x="900" y="574" width="260" height="24" fill="white" stroke="black"/>
<text x="904" y="588" font-size="12">VFC</text>
<rect x="20" y="598" width="240" height="24" fill="white" stroke="black"/>
<text x="24" y="612" font-size="12">GCEC_B1_HVAC_CSF-B1-01</text>
<rect x="260" y="598" width="260" height="24" fill="white" stroke="black"/>
<text x="264" y="612" font-size="12">SF1-S</text>
<rect x="520" y="598" width="360" height="24" fill="white" stroke="black"/>
<text x="524" y="612" font-size="12">Supply Fan 1 Status</text>
<rect x="900" y="598" width="260" height="24" fill="white" stroke="black"/>
<text x="904" y="612" font-size="12">VFC</text>
<rect x="20" y="622" width="240" height="6" fill="white" stroke="black"/>
<rect x="260" y="622" width="260" height="6" fill="white" stroke="black"/>
<rect x="520" y="622" width="360" height="6" fill="white" stroke="black"/>
<rect x="900" y="622" width="260" height="6" fill="white" stroke="black"/>
<rect x="20" y="628" width="240" height="24" fill="white" stroke="black"/>
<text x="24" y="642" font-size="12">GCEC_B1_HVAC_CSF-B1-01</text>
<rect x="260" y="628" width="260" height="24" fill="white" stroke="black"/>
<text x="264" y="642" font-size="12">SF1-C</text>
<rect x="520" y="628" width="360" height="24" fill="white" stroke="black"/>
<text x="524" y="642" font-size="12">Supply Fan 1 Command</text>
<rect x="900" y="628" width="260" height="24" fill="white" stroke="black"/>
<text x="904" y="642" font-size="12">24Vac</text>
<rect x="20" y="652" width="240" height="24" fill="white" stroke="black"/>
<text x="24" y="666" font-size="12">GCEC_B1_HVAC_CSF-B1-02</text>
<rect x="260" y="652" width="260" height="24" fill="white" stroke="black"/>
<text x="264" y="666" font-size="12">SF2-C</text>
<rect x="520" y="652" width="360" height="24" fill="white" stroke="black"/>
<text x="524" y="666" font-size="12">Supply Fan 2 Command</text>
<rect x="900" y="652" width="260" height="24" fill="white" stroke="black"/>
<text x="904" y="666" font-size="12">24Vac</text>
<rect x="20" y="676" width="240" height="24" fill="white" stroke="black"/>
<text x="24" y="690" font-size="12">GCEC_B1_HVAC_CSF-B1-04</text>
<rect x="260" y="676" width="260" height="24" fill="white" stroke="black"/>
<text x="264" y="690" font-size="12">SF4-C</text>
<rect x="520" y="676" width="360" height="24" fill="white" stroke="black"/>
<text x="524" y="690" font-size="12">Supply Fan 4 Command</text>
<rect x="900" y="676" width="260" height="24" fill="white" stroke="black"/>
<text x="904" y="690" font-size="12">24Vac</text>
<rect x="20" y="700" width="240" height="6" fill="white" stroke="black"/>
<rect x="260" y="700" width="260" height="6" fill="white" stroke="black"/>
<rect x="520" y="700" width="360" height="6" fill="white" stroke="black"/>
<rect x="900" y="700" width="260" height="6" fill="white" stroke="black"/>
<rect x="20" y="706" width="240" height="6" fill="white" stroke="black"/>
<rect x="260" y="706" width="260" height="6" fill="white" stroke="black"/>
<rect x="520" y="706" width="360" height="6" fill="white" stroke="black"/>
<rect x="900" y="706" width="260" height="6" fill="white" stroke="black"/>
<rect x="20" y="712" width="240" height="6" fill="white" stroke="black"/>
<rect x="260" y="712" width="260" height="6" fill="white" stroke="black"/>
<rect x="520" y="712" width="360" height="6" fill="white" stroke="black"/>
<rect x="900" y="712" width="260" height="6" fill="white" stroke="black"/>
<rect x="20" y="718" width="240" height="24" fill="white" stroke="black"/>
<text x="24" y="732" font-size="12">GCEC_B1_HVAC_CSF-B1-04</text>
<rect x="260" y="718" width="260" height="24" fill="white" stroke="black"/>
<text x="264" y="732" font-size="12">SF4-O</text>
<rect x="520" y="718" width="360" height="24" fill="white" stroke="black"/>
<text x="524" y="732" font-size="12">Supply Fan 4 Speed</text>
<rect x="900" y="718" width="260" height="24" fill="white" stroke="black"/>
<text x="904" y="732" font-size="12">0-10Vdc</text>
<rect x="20" y="742" width="240" height="24" fill="white" stroke="black"/>
<text x="24" y="756" font-size="12">GCEC_B1_HVAC_CSF-B1-01</text>
<rect x="260" y="742" width="260" height="24" fill="white" stroke="black"/>
<text x="264" y="756" font-size="12">SF1-O</text>
<rect x="520" y="742" width="360" height="24" fill="white" stroke="black"/>
<text x="524" y="756" font-size="12">Supply Fan 1 Speed</text>
<rect x="900" y="742" width="260" height="24" fill="white" stroke="black"/>
<text x="904" y="756" font-size="12">0-10Vdc</text>
<rect x="20" y="766" width="240" height="24" fill="white" stroke="black"/>
<text x="24" y="780" font-size="12">GCEC_B1_HVAC_CSF-B1-02</text>
<rect x="260" y="766" width="260" height="24" fill="white" stroke="black"/>
<text x="264" y="780" font-size="12">SF2-O</text>
<rect x="520" y="766" width="360" height="24" fill="white" stroke="black"/>
<text x="524" y="780" font-size="12">Supply Fan 2 Speed</text>
<rect x="900" y="766" width="260" height="24" fill="white" stroke="black"/>
<text x="904" y="780" font-size="12">0-10Vdc</text>
<rect x="20" y="790" width="240" height="42" fill="white" stroke="black"/>
<rect x="260" y="790" width="260" height="42" fill="white" stroke="black"/>
<text x="264" y="804" font-size="12">M4-XPM09090</text>
<rect x="520" y="790" width="360" height="42" fill="white" stroke="black"/>
<rect x="900" y="790" width="260" height="42" fill="white" stroke="black"/>
<text x="904" y="804" font-size="12">Carpark Ventilation</text>
<text x="904" y="822" font-size="12">&amp; Jet Fans</text>
<rect x="20" y="832" width="240" height="24" fill="white" stroke="black"/>
<rect x="260" y="832" width="260" height="24" fill="white" stroke="black"/>
<text x="264" y="846" font-size="12">1</text>
<rect x="520" y="832" width="360" height="24" fill="white" stroke="black"/>
<rect x="900" y="832" width="260" height="24" fill="white" stroke="black"/>
<text x="904" y="846" font-size="12">MSSB-B1-01</text>
<rect x="20" y="856" width="240" height="24" fill="white" stroke="black"/>
<text x="24" y="870" font-size="12">GCEC_B1_HVAC_CSF-B1-02</text>
<rect x="260" y="856" width="260" height="24" fill="white" stroke="black"/>
<text x="264" y="870" font-size="12">ZN-CO6</text>
<rect x="520" y="856" width="360" height="24" fill="white" stroke="black"/>
<text x="524" y="870" font-size="12">Zone CO 6</text>
<rect x="900" y="856" width="260" height="24" fill="white" stroke="black"/>
<text x="904" y="870" font-size="12">0-10Vdc</text>
<rect x="20" y="880" width="240" height="24" fill="white" stroke="black"/>
<text x="24" y="894" font-size="12">GCEC_B1_HVAC_CSF-B1-02</text>
<rect x="260" y="880" width="260" height="24" fill="white" stroke="black"/>
<text x="264" y="894" font-size="12">ZN-CO7</text>
<rect x="520" y="880" width="360" height="24" fill="white" stroke="black"/>
<text x="524" y="894" font-size="12">Zone CO 7</text>
<rect x="900" y="880" width="260" height="24" fill="white" stroke="black"/>
<text x="904" y="894" font-size="12">0-10Vdc</text>
<rect x="20" y="904" width="240" height="24" fill="white" stroke="black"/>
<text x="24" y="918" font-size="12">GCEC_B1_HVAC_CSF-B1-02</text>
<rect x="260" y="904" width="260" height="24" fill="white" stroke="black"/>
<text x="264" y="918" font-size="12">ZN-CO8</text>
<rect x="520" y="904" width="360" height="24" fill="white" stroke="black"/>
<text x="524" y="918" font-size="12">Zone CO 8</text>
<rect x="900" y="904" width="260" height="24" fill="white" stroke="black"/>
<text x="904" y="918" font-size="12">0-10Vdc</text>
<rect x="20" y="928" width="240" height="24" fill="white" stroke="black"/>
<text x="24" y="942" font-size="12">GCEC_B1_HVAC_CSF-B1-02</text>
<rect x="260" y="928" width="260" height="24" fill="white" stroke="black"/>
<text x="264" y="942" font-size="12">ZN-CO9</text>
<rect x="520" y="928" width="360" height="24" fill="white" stroke="black"/>
<text x="524" y="942" font-size="12">Zone CO 9</text>
<rect x="900" y="928" width="260" height="24" fill="white" stroke="black"/>
<text x="904" y="942" font-size="12">0-10Vdc</text>
<rect x="20" y="952" width="240" height="24" fill="white" stroke="black"/>
<text x="24" y="966" font-size="12">GCEC_B1_HVAC_CSF-B1-02</text>
<rect x="260" y="952" width="260" height="24" fill="white" stroke="black"/>
<text x="264" y="966" font-size="12">ZN-CO10</text>
<rect x="520" y="952" width="360" height="24" fill="white" stroke="black"/>
<text x="524" y="966" font-size="12">Zone CO 10</text>
<rect x="900" y="952" width="260" height="24" fill="white" stroke="black"/>
<text x="904" y="966" font-size="12">0-10Vdc</text>
<rect x="20" y="976" width="240" height="24" fill="white" stroke="black"/>
<text x="24" y="990" font-size="12">GCEC_B1_HVAC_CSF-B1-02</text>
<rect x="260" y="976" width="260" height="24" fill="white" stroke="black"/>
<text x="264" y="990" font-size="12">SF2-A</text>
<rect x="520" y="976" width="360" height="24" fill="white" stroke="black"/>
<text x="524" y="990" font-size="12">Supply Fan 2 Fault</text>
<rect x="900" y="976" width="260" height="24" fill="white" stroke="black"/>
<text x="904" y="990" font-size="12">VFC</text>
<rect x="20" y="1000" width="240" height="24" fill="white" stroke="black"/>
<text x="24" y="1014" font-size="12">GCEC_B1_HVAC_JF-B1-01</text>
<rect x="260" y="1000" width="260" height="24" fill="white" stroke="black"/>
<text x="264" y="1014" font-size="12">JF1-S</text>
<rect x="520" y="1000" width="360" height="24" fill="white" stroke="black"/>
<text x="524" y="1014" font-size="12">Jet Fan 1 Status</text>
<rect x="900" y="1000" width="260" height="24" fill="white" stroke="black"/>
<text x="904" y="1014" font-size="12">VFC</text>
<rect x="20" y="1024" width="240" height="24" fill="white" stroke="black"/>
<text x="24" y="1038" font-size="12">GCEC_B1_HVAC_JF-B1-02</text>
<rect x="260" y="1024" width="260" height="24" fill="white" stroke="black"/>
<text x="264" y="1038" font-size="12">JF2-S</text>
<rect x="520" y="1024" width="360" height="24" fill="white" stroke="black"/>
<text x="524" y="1038" font-size="12">Jet Fan 2 Status</text>
<rect x="900" y="1024" width="260" height="24" fill="white" stroke="black"/>
<text x="904" y="1038" font-size="12">VFC</text>
<rect x="20" y="1048" width="240" height="24" fill="white" stroke="black"/>
<text x="24" y="1062" font-size="12">GCEC_B1_HVAC_JF-B1-03</text>
<rect x="260" y="1048" width="260" height="24" fill="white" stroke="black"/>
<text x="264" y="1062" font-size="12">JF3-S</text>
<rect x="520" y="1048" width="360" height="24" fill="white" stroke="black"/>
<text x="524" y="1062" font-size="12">Jet Fan 3 Status</text>
<rect x="900" y="1048" width="260" height="24" fill="white" stroke="black"/>
<text x="904" y="1062" font-size="12">VFC</text>
<rect x="20" y="1072" width="240" height="24" fill="white" stroke="black"/>
<text x="24" y="1086" font-size="12">GCEC_B1_HVAC_JF-B1-01</text>
<rect x="260" y="1072" width="260" height="24" fill="white" stroke="black"/>
<text x="264" y="1086" font-size="12">JF1-S</text>
<rect x="520" y="1072" width="360" height="24" fill="white" stroke="black"/>
<text x="524" y="1086" font-size="12">Jet Fan 1 Command</text>
<rect x="900" y="1072" width="260" height="24" fill="white" stroke="black"/>
<text x="904" y="1086" font-size="12">24Vac</text>
<rect x="20" y="1096" width="240" height="24" fill="white" stroke="black"/>
<text x="24" y="1110" font-size="12">GCEC_B1_HVAC_JF-B1-02</text>
<rect x="260" y="1096" width="260" height="24" fill="white" stroke="black"/>
<text x="264" y="1110" font-size="12">JF2-S</text>
<rect x="520" y="1096" width="360" height="24" fill="white" stroke="black"/>
<text x="524" y="1110" font-size="12">Jet Fan 2 Command</text>
<rect x="900" y="1096" width="260" height="24" fill="white" stroke="black"/>
<text x="904" y="1110" font-size="12">24Vac</text>
<rect x="20" y="1120" width="240" height="24" fill="white" stroke="black"/>
<text x="24" y="1134" font-size="12">GCEC_B1_HVAC_JF-B1-03</text>
<rect x="260" y="1120" width="260" height="24" fill="white" stroke="black"/>
<text x="264" y="1134" font-size="12">JF3-S</text>
<rect x="520" y="1120" width="360" height="24" fill="white" stroke="black"/>
<text x="524" y="1134" font-size="12">Jet Fan 3 Command</text>
<rect x="900" y="1120" width="260" height="24" fill="white" stroke="black"/>
<text x="904" y="1134" font-size="12">24Vac</text>
<rect x="20" y="1144" width="240" height="24" fill="white" stroke="black"/>
<text x="24" y="1158" font-size="12">GCEC_B1_HVAC_JF-B1-03</text>
<rect x="260" y="1144" width="260" height="24" fill="white" stroke="black"/>
<text x="264" y="1158" font-size="12">JF3-O</text>
<rect x="520" y="1144" width="360" height="24" fill="white" stroke="black"/>
<text x="524" y="1158" font-size="12">Jet Fan 3 Speed</text>
<rect x="900" y="1144" width="260" height="24" fill="white" stroke="black"/>
<text x="904" y="1158" font-size="12">0-10Vdc</text>
<rect x="20" y="1168" width="240" height="6" fill="white" stroke="black"/>
<rect x="260" y="1168" width="260" height="6" fill="white" stroke="black"/>
<rect x="520" y="1168" width="360" height="6" fill="white" stroke="black"/>
<rect x="900" y="1168" width="260" height="6" fill="white" stroke="black"/>
<rect x="20" y="1174" width="240" height="6" fill="white" stroke="black"/>
<rect x="260" y="1174" width="260" height="6" fill="white" stroke="black"/>
<rect x="520" y="1174" width="360" height="6" fill="white" stroke="black"/>
<rect x="900" y="1174" width="260" height="6" fill="white" stroke="black"/>
<rect x="20" y="1180" width="240" height="6" fill="white" stroke="black"/>
<rect x="260" y="1180" width="260" height="6" fill="white" stroke="black"/>
<rect x="520" y="1180" width="360" height="6" fill="white" stroke="black"/>
<rect x="900" y="1180" width="260" height="6" fill="white" stroke="black"/>
<rect x="20" y="1186" width="240" height="24" fill="white" stroke="black"/>
<text x="24" y="1200" font-size="12">GCEC_B1_HVAC_JF-B1-01</text>
<rect x="260" y="1186" width="260" height="24" fill="white" stroke="black"/>
<text x="264" y="1200" font-size="12">JF1-O</text>
<rect x="520" y="1186" width="360" height="24" fill="white" stroke="black"/>
<text x="524" y="1200" font-size="12">Jet Fan 1 Speed</text>
<rect x="900" y="1186" width="260" height="24" fill="white" stroke="black"/>
<text x="904" y="1200" font-size="12">0-10Vdc</text>
<rect x="20" y="1210" width="240" height="24" fill="white" stroke="black"/>
<text x="24" y="1224" font-size="12">GCEC_B1_HVAC_JF-B1-02</text>
<rect x="260" y="1210" width="260" height="24" fill="white" stroke="black"/>
<text x="264" y="1224" font-size="12">JF2-O</text>
<rect x="520" y="1210" width="360" height="24" fill="white" stroke="black"/>
<text x="524" y="1224" font-size="12">Jet Fan 2 Speed</text>
<rect x="900" y="1210" width="260" height="24" fill="white" stroke="black"/>
<text x="904" y="1224" font-size="12">0-10Vdc</text>
<rect x="20" y="1234" width="240" height="24" fill="white" stroke="black"/>
<rect x="260" y="1234" width="260" height="24" fill="white" stroke="black"/>
<text x="264" y="1248" font-size="12">M4-XPM09090</text>
<rect x="520" y="1234" width="360" height="24" fill="white" stroke="black"/>
<rect x="900" y="1234" width="260" height="24" fill="white" stroke="black"/>
<text x="904" y="1248" font-size="12">OAF</text>
<rect x="20" y="1258" width="240" height="24" fill="white" stroke="black"/>
<rect x="260" y="1258" width="260" height="24" fill="white" stroke="black"/>
<text x="264" y="1272" font-size="12">1</text>
<rect x="520" y="1258" width="360" height="24" fill="white" stroke="black"/>
<rect x="900" y="1258" width="260" height="24" fill="white" stroke="black"/>
<text x="904" y="1272" font-size="12">MSSB-B1-01</text>
<rect x="20" y="1282" width="240" height="24" fill="white" stroke="black"/>
<text x="24" y="1296" font-size="12">GCEC_B1_HVAC_CSF-B1-01</text>
<rect x="260" y="1282" width="260" height="24" fill="white" stroke="black"/>
<text x="264" y="1296" font-size="12">SF1-A</text>
<rect x="520" y="1282" width="360" height="24" fill="white" stroke="black"/>
<text x="524" y="1296" font-size="12">Supply Fan 1 Fault</text>
<rect x="900" y="1282" width="260" height="24" fill="white" stroke="black"/>
<text x="904" y="1296" font-size="12">VFC</text>
<rect x="20" y="1306" width="240" height="24" fill="white" stroke="black"/>
<text x="24" y="1320" font-size="12">GCEC_B1_HVAC_CSF-B1-04</text>
<rect x="260" y="1306" width="260" height="24" fill="white" stroke="black"/>
<text x="264" y="1320" font-size="12">SF4-A</text>
<rect x="520" y="1306" width="360" height="24" fill="white" stroke="black"/>
<text x="524" y="1320" font-size="12">Supply Fan 4 Fault</text>
<rect x="900" y="1306" width="260" height="24" fill="white" stroke="black"/>
<text x="904" y="1320" font-size="12">VFC</text>
<rect x="20" y="1330" width="240" height="24" fill="white" stroke="black"/>
<text x="24" y="1344" font-size="12">GCEC_B1_HVAC_JF-B1-01</text>
<rect x="260" y="1330" width="260" height="24" fill="white" stroke="black"/>
<text x="264" y="1344" font-size="12">JF1-A</text>
<rect x="520" y="1330" width="360" height="24" fill="white" stroke="black"/>
<text x="524" y="1344" font-size="12">Jet Fan 1 Fault</text>
<rect x="900" y="1330" width="260" height="24" fill="white" stroke="black"/>
<text x="904" y="1344" font-size="12">VFC</text>
<rect x="20" y="1354" width="240" height="24" fill="white" stroke="black"/>
<text x="24" y="1368" font-size="12">GCEC_B1_HVAC_JF-B1-02</text>
<rect x="260" y="1354" width="260" height="24" fill="white" stroke="black"/>
<text x="264" y="1368" font-size="12">JF2-A</text>
<rect x="520" y="1354" width="360" height="24" fill="white" stroke="black"/>
<text x="524" y="1368" font-size="12">Jet Fan 2 Fault</text>
<rect x="900" y="1354" width="260" height="24" fill="white" stroke="black"/>
<text x="904" y="1368" font-size="12">VFC</text>
<rect x="20" y="1378" width="240" height="24" fill="white" stroke="black"/>
<text x="24" y="1392" font-size="12">GCEC_B1_HVAC_JF-B1-03</text>
<rect x="260" y="1378" width="260" height="24" fill="white" stroke="black"/>
<text x="264" y="1392" font-size="12">JF3-A</text>
<rect x="520" y="1378" width="360" height="24" fill="white" stroke="black"/>
<text x="524" y="1392" font-size="12">Jet Fan 3 Fault</text>
<rect x="900" y="1378" width="260" height="24" fill="white" stroke="black"/>
<text x="904" y="1392" font-size="12">VFC</text>
<rect x="20" y="1402" width="240" height="24" fill="white" stroke="black"/>
<text x="24" y="1416" font-size="12">GCEC_B1_HVAC_OAF-B1-05</text>
<rect x="260" y="1402" width="260" height="24" fill="white" stroke="black"/>
<text x="264" y="1416" font-size="12">OAF5-A</text>
<rect x="520" y="1402" width="360" height="24" fill="white" stroke="black"/>
<text x="524" y="1416" font-size="12">Outside Air Fan 5 Fault</text>
<rect x="900" y="1402" width="260" height="24" fill="white" stroke="black"/>
<text x="904" y="1416" font-size="12">VFC</text>
<rect x="20" y="1426" width="240" height="24" fill="white" stroke="black"/>
<text x="24" y="1440" font-size="12">GCEC_B1_HVAC_OAF-B1-05</text>
<rect x="260" y="1426" width="260" height="24" fill="white" stroke="black"/>
<text x="264" y="1440" font-size="12">OAF5-S</text>
<rect x="520" y="1426" width="360" height="24" fill="white" stroke="black"/>
<text x="524" y="1440" font-size="12">Outside Air Fan 5 Status</text>
<rect x="900" y="1426" width="260" height="24" fill="white" stroke="black"/>
<text x="904" y="1440" font-size="12">VFC</text>
<rect x="20" y="1450" width="240" height="24" fill="white" stroke="black"/>
<text x="24" y="1464" font-size="12">GCEC_B1_HVAC_OAF-B1-04</text>
<rect x="260" y="1450" width="260" height="24" fill="white" stroke="black"/>
<text x="264" y="1464" font-size="12">OAF4-A</text>
<rect x="520" y="1450" width="360" height="24" fill="white" stroke="black"/>
<text x="524" y="1464" font-size="12">Outside Air Fan 4 Fault</text>
<rect x="900" y="1450" width="260" height="24" fill="white" stroke="black"/>
<text x="904" y="1464" font-size="12">VFC</text>
<rect x="20" y="1474" width="240" height="24" fill="white" stroke="black"/>
<text x="24" y="1488" font-size="12">GCEC_B1_HVAC_OAF-B1-04</text>
<rect x="260" y="1474" width="260" height="24" fill="white" stroke="black"/>
<text x="264" y="1488" font-size="12">OAF4-S</text>
<rect x="520" y="1474" width="360" height="24" fill="white" stroke="black"/>
<text x="524" y="1488" font-size="12">Outside Air Fan 4 Status</text>
<rect x="900" y="1474" width="260" height="24" fill="white" stroke="black"/>
<text x="904" y="1488" font-size="12">VFC</text>
<rect x="20" y="1498" width="240" height="6" fill="white" stroke="black"/>
<rect x="260" y="1498" width="260" height="6" fill="white" stroke="black"/>
<rect x="520" y="1498" width="360" height="6" fill="white" stroke="black"/>
<rect x="900" y="1498" width="260" height="6" fill="white" stroke="black"/>
<rect x="20" y="1504" width="240" height="24" fill="white" stroke="black"/>
<text x="24" y="1518" font-size="12">GCEC_B1_HVAC_OAF-B1-04</text>
<rect x="260" y="1504" width="260" height="24" fill="white" stroke="black"/>
<text x="264" y="1518" font-size="12">OAF-C</text>
<rect x="520" y="1504" width="360" height="24" fill="white" stroke="black"/>
<text x="524" y="1518" font-size="12">Outside Air Fan Command</text>
<rect x="900" y="1504" width="260" height="24" fill="white" stroke="black"/>
<text x="904" y="1518" font-size="12">24Vac</text>
<rect x="20" y="1528" width="240" height="24" fill="white" stroke="black"/>
<text x="24" y="1542" font-size="12">GCEC_B1_HVAC_OAF-B1-05</text>
<rect x="260" y="1528" width="260" height="24" fill="white" stroke="black"/>
<text x="264" y="1542" font-size="12">OAF-C</text>
<rect x="520" y="1528" width="360" height="24" fill="white" stroke="black"/>
<text x="524" y="1542" font-size="12">Outside Air Fan Command</text>
<rect x="900" y="1528" width="260" height="24" fill="white" stroke="black"/>
<text x="904" y="1542" font-size="12">24Vac</text>
<rect x="20" y="1552" width="240" height="6" fill="white" stroke="black"/>
<rect x="260" y="1552" width="260" height="6" fill="white" stroke="black"/>
<rect x="520" y="1552" width="360" height="6" fill="white" stroke="black"/>
<rect x="900" y="1552" width="260" height="6" fill="white" stroke="black"/>
<rect x="20" y="1558" width="240" height="6" fill="white" stroke="black"/>
<rect x="260" y="1558" width="260" height="6" fill="white" stroke="black"/>
<rect x="520" y="1558" width="360" height="6" fill="white" stroke="black"/>
<rect x="900" y="1558" width="260" height="6" fill="white" stroke="black"/>
<rect x="20" y="1564" width="240" height="6" fill="white" stroke="black"/>
<rect x="260" y="1564" width="260" height="6" fill="white" stroke="black"/>
<rect x="520" y="1564" width="360" height="6" fill="white" stroke="black"/>
<rect x="900" y="1564" width="260" height="6" fill="white" stroke="black"/>
<rect x="20" y="1570" width="240" height="6" fill="white" stroke="black"/>
<rect x="260" y="1570" width="260" height="6" fill="white" stroke="black"/>
<rect x="520" y="1570" width="360" height="6" fill="white" stroke="black"/>
<rect x="900" y="1570" width="260" height="6" fill="white" stroke="black"/>
<rect x="20" y="1576" width="240" height="6" fill="white" stroke="black"/>
<rect x="260" y="1576" width="260" height="6" fill="white" stroke="black"/>
<rect x="520" y="1576" width="360" height="6" fill="white" stroke="black"/>
<rect x="900" y="1576" width="260" height="6" fill="white" stroke="black"/>
<rect x="20" y="1582" width="240" height="6" fill="white" stroke="black"/>
<rect x="260" y="1582" width="260" height="6" fill="white" stroke="black"/>
<rect x="520" y="1582" width="360" height="6" fill="white" stroke="black"/>
<rect x="900" y="1582" width="260" height="6" fill="white" stroke="black"/>
<rect x="20" y="1588" width="240" height="24" fill="white" stroke="black"/>
<rect x="260" y="1588" width="260" height="24" fill="white" stroke="black"/>
<text x="264" y="1602" font-size="12">M4-CGE09090</text>
<rect x="520" y="1588" width="360" height="24" fill="white" stroke="black"/>
<rect x="900" y="1588" width="260" height="24" fill="white" stroke="black"/>
<text x="904" y="1602" font-size="12">Compressed Air Plant</text>
<rect x="20" y="1612" width="240" height="24" fill="white" stroke="black"/>
<rect x="260" y="1612" width="260" height="24" fill="white" stroke="black"/>
<text x="264" y="1626" font-size="12">1</text>
<rect x="520" y="1612" width="360" height="24" fill="white" stroke="black"/>
<rect x="900" y="1612" width="260" height="24" fill="white" stroke="black"/>
<text x="904" y="1626" font-size="12">MSSB-B1-01</text>
<rect x="20" y="1636" width="240" height="24" fill="white" stroke="black"/>
<text x="24" y="1650" font-size="12">GCEC_B1_HVAC_PAC-B1-04</text>
<rect x="260" y="1636" width="260" height="24" fill="white" stroke="black"/>
<text x="264" y="1650" font-size="12">ZN-T</text>
<rect x="520" y="1636" width="360" height="24" fill="white" stroke="black"/>
<text x="524" y="1650" font-size="12">Zone Temperature</text>
<rect x="900" y="1636" width="260" height="24" fill="white" stroke="black"/>
<text x="904" y="1650" font-size="12">10k Type2</text>
<rect x="20" y="1660" width="240" height="24" fill="white" stroke="black"/>
<text x="24" y="1674" font-size="12">GCEC_B1_AIR_COMP_1</text>
<rect x="260" y="1660" width="260" height="24" fill="white" stroke="black"/>
<text x="264" y="1674" font-size="12">COMP-FLT</text>
<rect x="520" y="1660" width="360" height="24" fill="white" stroke="black"/>
<text x="524" y="1674" font-size="12">Compressor Fault</text>
<rect x="900" y="1660" width="260" height="24" fill="white" stroke="black"/>
<text x="904" y="1674" font-size="12">VFC</text>
<rect x="20" y="1684" width="240" height="24" fill="white" stroke="black"/>
<text x="24" y="1698" font-size="12">GCEC_B1_AIR_COMP_2</text>
<rect x="260" y="1684" width="260" height="24" fill="white" stroke="black"/>
<text x="264" y="1698" font-size="12">COMP-FLT</text>
<rect x="520" y="1684" width="360" height="24" fill="white" stroke="black"/>
<text x="524" y="1698" font-size="12">Compressor Fault</text>
<rect x="900" y="1684" width="260" height="24" fill="white" stroke="black"/>
<text x="904" y="1698" font-size="12">VFC</text>
<rect x="20" y="1708" width="240" height="24" fill="white" stroke="black"/>
<text x="24" y="1722" font-size="12">GCEC_B1_HVAC_PAC-B1-04</text>
<rect x="260" y="1708" width="260" height="24" fill="white" stroke="black"/>
<text x="264" y="1722" font-size="12">UNIT-S</text>
<rect x="520" y="1708" width="360" height="24" fill="white" stroke="black"/>
<text x="524" y="1722" font-size="12">Unit Status</text>
<rect x="900" y="1708" width="260" height="24" fill="white" stroke="black"/>
<text x="904" y="1722" font-size="12">VFC</text>
<rect x="20" y="1732" width="240" height="24" fill="white" stroke="black"/>
<text x="24" y="1746" font-size="12">GCEC_B1_HVAC_PAC-B1-04</text>
<rect x="260" y="1732" width="260" height="24" fill="white" stroke="black"/>
<text x="264" y="1746" font-size="12">PB-S</text>
<rect x="520" y="1732" width="360" height="24" fill="white" stroke="black"/>
<text x="524" y="1746" font-size="12">Manual Push Button Status</text>
<rect x="900" y="1732" width="260" height="24" fill="white" stroke="black"/>
<text x="904" y="1746" font-size="12">VFC</text>
<rect x="20" y="1756" width="240" height="6" fill="white" stroke="black"/>
<rect x="260" y="1756" width="260" height="6" fill="white" stroke="black"/>
<rect x="520" y="1756" width="360" height="6" fill="white" stroke="black"/>
<rect x="900" y="1756" width="260" height="6" fill="white" stroke="black"/>
<rect x="20" y="1762" width="240" height="6" fill="white" stroke="black"/>
<rect x="260" y="1762" width="260" height="6" fill="white" stroke="black"/>
<rect x="520" y="1762" width="360" height="6" fill="white" stroke="black"/>
<rect x="900" y="1762" width="260" height="6" fill="white" stroke="black"/>
<rect x="20" y="1768" width="240" height="24" fill="white" stroke="black"/>
<text x="24" y="1782" font-size="12">GCEC_B1_HVAC_PAC-B1-04</text>
<rect x="260" y="1768" width="260" height="24" fill="white" stroke="black"/>
<text x="264" y="1782" font-size="12">CCW-S</text>
<rect x="520" y="1768" width="360" height="24" fill="white" stroke="black"/>
<text x="524" y="1782" font-size="12">Unit Status</text>
<rect x="900" y="1768" width="260" height="24" fill="white" stroke="black"/>
<text x="904" y="1782" font-size="12">VFC</text>
<rect x="20" y="1792" width="240" height="24" fill="white" stroke="black"/>
<text x="24" y="1806" font-size="12">GCEC_B1_HVAC_PAC-B1-04</text>
<rect x="260" y="1792" width="260" height="24" fill="white" stroke="black"/>
<text x="264" y="1806" font-size="12">UNIT-FLT</text>
<rect x="520" y="1792" width="360" height="24" fill="white" stroke="black"/>
<text x="524" y="1806" font-size="12">Unit Fault</text>
<rect x="900" y="1792" width="260" height="24" fill="white" stroke="black"/>
<text x="904" y="1806" font-size="12">VFC</text>
<rect x="20" y="1816" width="240" height="6" fill="white" stroke="black"/>
<rect x="260" y="1816" width="260" height="6" fill="white" stroke="black"/>
<rect x="520" y="1816" width="360" height="6" fill="white" stroke="black"/>
<rect x="900" y="1816" width="260" height="6" fill="white" stroke="black"/>
<rect x="20" y="1822" width="240" height="24" fill="white" stroke="black"/>
<text x="24" y="1836" font-size="12">GCEC_B1_HVAC_PAC-B1-04</text>
<rect x="260" y="1822" width="260" height="24" fill="white" stroke="black"/>
<text x="264" y="1836" font-size="12">COMP-C</text>
<rect x="520" y="1822" width="360" height="24" fill="white" stroke="black"/>
<text x="524" y="1836" font-size="12">Compressor Command</text>
<rect x="900" y="1822" width="260" height="24" fill="white" stroke="black"/>
<text x="904" y="1836" font-size="12">24Vac</text>
<rect x="20" y="1846" width="240" height="24" fill="white" stroke="black"/>
<text x="24" y="1860" font-size="12">GCEC_B1_HVAC_PAC-B1-04</text>
<rect x="260" y="1846" width="260" height="24" fill="white" stroke="black"/>
<text x="264" y="1860" font-size="12">PB-IND</text>
<rect x="520" y="1846" width="360" height="24" fill="white" stroke="black"/>
<text x="524" y="1860" font-size="12">Manual Push Button LED</text>
<rect x="900" y="1846" width="260" height="24" fill="white" stroke="black"/>
<text x="904" y="1860" font-size="12">24Vac</text>
<rect x="20" y="1870" width="240" height="24" fill="white" stroke="black"/>
<text x="24" y="1884" font-size="12">GCEC_B1_HVAC_PAC-B1-04</text>
<rect x="260" y="1870" width="260" height="24" fill="white" stroke="black"/>
<text x="264" y="1884" font-size="12">CW-O</text>
<rect x="520" y="1870" width="360" height="24" fill="white" stroke="black"/>
<text x="524" y="1884" font-size="12">Isolation Valve Command</text>
<rect x="900" y="1870" width="260" height="24" fill="white" stroke="black"/>
<text x="904" y="1884" font-size="12">24Vac</text>
<rect x="20" y="1894" width="240" height="24" fill="white" stroke="black"/>
<text x="24" y="1908" font-size="12">GCEC_B1_AIR_COMP_1</text>
<rect x="260" y="1894" width="260" height="24" fill="white" stroke="black"/>
<text x="264" y="1908" font-size="12">COMP-C</text>
<rect x="520" y="1894" width="360" height="24" fill="white" stroke="black"/>
<text x="524" y="1908" font-size="12">Compressor Command</text>
<rect x="900" y="1894" width="260" height="24" fill="white" stroke="black"/>
<text x="904" y="1908" font-size="12">24Vac</text>
<rect x="20" y="1918" width="240" height="24" fill="white" stroke="black"/>
<text x="24" y="1932" font-size="12">GCEC_B1_AIR_COMP_2</text>
<rect x="260" y="1918" width="260" height="24" fill="white" stroke="black"/>
<text x="264" y="1932" font-size="12">COMP-C</text>
<rect x="520" y="1918" width="360" height="24" fill="white" stroke="black"/>
<text x="524" y="1932" font-size="12">Compressor Command</text>
<rect x="900" y="1918" width="260" height="24" fill="white" stroke="black"/>
<text x="904" y="1932" font-size="12">24Vac</text>
<rect x="20" y="1942" width="240" height="24" fill="white" stroke="black"/>
<text x="24" y="1956" font-size="12">GCEC_B1_HVAC_PAC-B1-04</text>
<rect x="260" y="1942" width="260" height="24" fill="white" stroke="black"/>
<text x="264" y="1956" font-size="12">UNIT-C</text>
<rect x="520" y="1942" width="360" height="24" fill="white" stroke="black"/>
<text x="524" y="1956" font-size="12">Fan High Speed</text>
<rect x="900" y="1942" width="260" height="24" fill="white" stroke="black"/>
<text x="904" y="1956" font-size="12">24Vac</text>
<rect x="20" y="1966" width="240" height="6" fill="white" stroke="black"/>
<rect x="260" y="1966" width="260" height="6" fill="white" stroke="black"/>
<rect x="520" y="1966" width="360" height="6" fill="white" stroke="black"/>
<rect x="900" y="1966" width="260" height="6" fill="white" stroke="black"/>
<rect x="20" y="1972" width="240" height="6" fill="white" stroke="black"/>
<rect x="260" y="1972" width="260" height="6" fill="white" stroke="black"/>
<rect x="520" y="1972" width="360" height="6" fill="white" stroke="black"/>
<rect x="900" y="1972" width="260" height="6" fill="white" stroke="black"/>
</svg>