<svg width="1100" height="520" xmlns="http://www.w3.org/2000/svg">
<rect x="10" y="10" width="1080" height="500" fill="none" stroke="black" stroke-width="2"/>
<text x="20" y="60" font-weight="bold">TYPE</text>
<text x="160" y="60" font-weight="bold">POINT</text>
<text x="360" y="60" font-weight="bold">DESCRIPTION</text>
<text x="900" y="60" font-weight="bold">SIGNAL</text>
<text x="20" y="80"></text>
<text x="160" y="80"></text>
<text x="360" y="80">Item No.</text>
<text x="900" y="80"></text>
<text x="20" y="100"></text>
<text x="160" y="100"></text>
<text x="360" y="100">1</text>
<text x="900" y="100"></text>
<text x="20" y="120"></text>
<text x="160" y="120"></text>
<text x="360" y="120">2</text>
<text x="900" y="120"></text>
<text x="20" y="140"></text>
<text x="160" y="140"></text>
<text x="360" y="140">3</text>
<text x="900" y="140"></text>
<text x="20" y="160"></text>
<text x="160" y="160"></text>
<text x="360" y="160">4</text>
<text x="900" y="160"></text>
<text x="20" y="180"></text>
<text x="160" y="180"></text>
<text x="360" y="180">5</text>
<text x="900" y="180"></text>
<text x="20" y="200"></text>
<text x="160" y="200"></text>
<text x="360" y="200">6</text>
<text x="900" y="200"></text>
<text x="20" y="220"></text>
<text x="160" y="220"></text>
<text x="360" y="220">7</text>
<text x="900" y="220"></text>
<text x="20" y="240"></text>
<text x="160" y="240"></text>
<text x="360" y="240">8</text>
<text x="900" y="240"></text>
<text x="20" y="260"></text>
<text x="160" y="260"></text>
<text x="360" y="260">9</text>
<text x="900" y="260"></text>
<text x="20" y="280"></text>
<text x="160" y="280"></text>
<text x="360" y="280">10</text>
<text x="900" y="280"></text>
<text x="20" y="300"></text>
<text x="160" y="300"></text>
<text x="360" y="300">11</text>
<text x="900" y="300"></text>
<text x="20" y="320"></text>
<text x="160" y="320"></text>
<text x="360" y="320">12</text>
<text x="900" y="320"></text>
<text x="20" y="340"></text>
<text x="160" y="340"></text>
<text x="360" y="340">13</text>
<text x="900" y="340"></text>
<text x="20" y="360"></text>
<text x="160" y="360"></text>
<text x="360" y="360">14</text>
<text x="900" y="360"></text>
<text x="20" y="380"></text>
<text x="160" y="380"></text>
<text x="360" y="380">15</text>
<text x="900" y="380"></text>
<text x="20" y="400"></text>
<text x="160" y="400"></text>
<text x="360" y="400">16</text>
<text x="900" y="400"></text>
<text x="20" y="420"></text>
<text x="160" y="420"></text>
<text x="360" y="420">17</text>
<text x="900" y="420"></text>
<text x="20" y="440"></text>
<text x="160" y="440"></text>
<text x="360" y="440">18</text>
<text x="900" y="440"></text>
<text x="20" y="460"></text>
<text x="160" y="460"></text>
<text x="360" y="460">19</text>
<text x="900" y="460"></text>
<text x="20" y="480"></text>
<text x="160" y="480"></text>
<text x="360" y="480">20</text>
<text x="900" y="480"></text>
</svg>